<svg width="4852" height="2694" viewBox="0 0 4852 2694" fill="none" xmlns="http://www.w3.org/2000/svg">
<g clip-path="url(#clip0_203_9308)">
<rect width="4852" height="2694" fill="#150633"/>
<g opacity="0.3" filter="url(#filter0_f_203_9308)">
<path d="M2798.87 1230.39C2923.03 1248.05 3004.06 1347.16 3082.88 1577.76C3242.55 2044.9 2309.66 2193.29 2439.58 1680.09C2521.5 1356.5 2640.28 1207.82 2798.87 1230.39Z" fill="url(#paint0_linear_203_9308)"/>
</g>
<g opacity="0.6" filter="url(#filter1_f_203_9308)">
<path d="M869.001 -592.924L629.994 160.768L96.7805 -423.064L869.001 -592.924Z" fill="url(#paint1_linear_203_9308)"/>
</g>
<g opacity="0.3" filter="url(#filter2_f_203_9308)">
<circle cx="-205.821" cy="936.177" r="372" transform="rotate(65.684 -205.821 936.177)" fill="url(#paint2_linear_203_9308)"/>
</g>
<g opacity="0.8" filter="url(#filter3_f_203_9308)">
<rect x="1999.2" y="-568" width="438" height="593" transform="rotate(62.9638 1999.2 -568)" fill="url(#paint3_linear_203_9308)"/>
</g>
<g filter="url(#filter4_f_203_9308)">
<circle cx="4498.5" cy="909.5" r="285.5" fill="url(#paint4_linear_203_9308)"/>
</g>
<g opacity="0.3" filter="url(#filter5_f_203_9308)">
<circle cx="3724.5" cy="691.5" r="208.5" fill="#7500AF"/>
</g>
<path opacity="0.4" d="M1526.34 1571.06L1526.56 1571.73L1527.12 1571.3L1578.16 1532.47L1548.77 1589.47L1548.45 1590.1L1549.15 1590.19L1612.69 1598.82L1551.61 1618.34L1550.94 1618.56L1551.37 1619.12L1590.2 1670.16L1533.2 1640.77L1532.57 1640.45L1532.48 1641.15L1523.85 1704.69L1504.33 1643.61L1504.11 1642.94L1503.55 1643.37L1452.51 1682.2L1481.9 1625.2L1482.22 1624.57L1481.52 1624.48L1417.98 1615.85L1479.06 1596.33L1479.73 1596.11L1479.3 1595.55L1440.47 1544.51L1497.47 1573.9L1498.1 1574.22L1498.19 1573.52L1506.82 1509.98L1526.34 1571.06Z" stroke="white"/>
</g>
<defs>
<filter id="filter0_f_203_9308" x="2227.12" y="1028.16" width="1074.2" height="1174.32" filterUnits="userSpaceOnUse" color-interpolation-filters="sRGB">
<feFlood flood-opacity="0" result="BackgroundImageFix"/>
<feBlend mode="normal" in="SourceGraphic" in2="BackgroundImageFix" result="shape"/>
<feGaussianBlur stdDeviation="100" result="effect1_foregroundBlur_203_9308"/>
</filter>
<filter id="filter1_f_203_9308" x="-203.219" y="-892.924" width="1372.22" height="1353.69" filterUnits="userSpaceOnUse" color-interpolation-filters="sRGB">
<feFlood flood-opacity="0" result="BackgroundImageFix"/>
<feBlend mode="normal" in="SourceGraphic" in2="BackgroundImageFix" result="shape"/>
<feGaussianBlur stdDeviation="150" result="effect1_foregroundBlur_203_9308"/>
</filter>
<filter id="filter2_f_203_9308" x="-777.913" y="364.086" width="1144.18" height="1144.18" filterUnits="userSpaceOnUse" color-interpolation-filters="sRGB">
<feFlood flood-opacity="0" result="BackgroundImageFix"/>
<feBlend mode="normal" in="SourceGraphic" in2="BackgroundImageFix" result="shape"/>
<feGaussianBlur stdDeviation="100" result="effect1_foregroundBlur_203_9308"/>
</filter>
<filter id="filter3_f_203_9308" x="1271" y="-768" width="1127.29" height="1059.69" filterUnits="userSpaceOnUse" color-interpolation-filters="sRGB">
<feFlood flood-opacity="0" result="BackgroundImageFix"/>
<feBlend mode="normal" in="SourceGraphic" in2="BackgroundImageFix" result="shape"/>
<feGaussianBlur stdDeviation="100" result="effect1_foregroundBlur_203_9308"/>
</filter>
<filter id="filter4_f_203_9308" x="4064" y="475" width="869" height="869" filterUnits="userSpaceOnUse" color-interpolation-filters="sRGB">
<feFlood flood-opacity="0" result="BackgroundImageFix"/>
<feBlend mode="normal" in="SourceGraphic" in2="BackgroundImageFix" result="shape"/>
<feGaussianBlur stdDeviation="74.5" result="effect1_foregroundBlur_203_9308"/>
</filter>
<filter id="filter5_f_203_9308" x="3216" y="183" width="1017" height="1017" filterUnits="userSpaceOnUse" color-interpolation-filters="sRGB">
<feFlood flood-opacity="0" result="BackgroundImageFix"/>
<feBlend mode="normal" in="SourceGraphic" in2="BackgroundImageFix" result="shape"/>
<feGaussianBlur stdDeviation="150" result="effect1_foregroundBlur_203_9308"/>
</filter>
<linearGradient id="paint0_linear_203_9308" x1="3025.86" y1="1264.53" x2="2487.67" y2="1951.66" gradientUnits="userSpaceOnUse">
<stop stop-color="#FFD600"/>
<stop offset="1" stop-color="#FF004D" stop-opacity="0.2"/>
</linearGradient>
<linearGradient id="paint1_linear_203_9308" x1="869.001" y1="-592.924" x2="194.849" y2="22.7775" gradientUnits="userSpaceOnUse">
<stop offset="0.078125" stop-color="#00FFD1" stop-opacity="0"/>
<stop offset="1" stop-color="#0077FF"/>
</linearGradient>
<linearGradient id="paint2_linear_203_9308" x1="-500.917" y1="615.447" x2="18.3326" y2="1308.18" gradientUnits="userSpaceOnUse">
<stop stop-color="#FFD600"/>
<stop offset="1" stop-color="#FF004D" stop-opacity="0.2"/>
</linearGradient>
<linearGradient id="paint3_linear_203_9308" x1="2218.2" y1="-568" x2="2218.2" y2="25" gradientUnits="userSpaceOnUse">
<stop stop-color="#4797EE" stop-opacity="0.28"/>
<stop offset="1" stop-color="#FF29C3"/>
</linearGradient>
<linearGradient id="paint4_linear_203_9308" x1="3963" y1="425.5" x2="4528.66" y2="1260.74" gradientUnits="userSpaceOnUse">
<stop stop-color="#FF00A8" stop-opacity="0"/>
<stop offset="0.9999" stop-color="#2723FE"/>
<stop offset="1" stop-color="#23A7FE"/>
</linearGradient>
<clipPath id="clip0_203_9308">
<rect width="4852" height="2694" fill="white"/>
</clipPath>
</defs>
</svg>
