<svg width="929" height="216" viewBox="0 0 929 216" fill="none" xmlns="http://www.w3.org/2000/svg">
<path d="M287.184 162.52C288.048 164.152 288.96 165.592 289.92 166.84C290.976 167.992 292.128 168.856 293.376 169.432C294.624 170.104 295.92 170.44 297.264 170.44C298.416 170.44 299.472 170.344 300.432 170.152C301.488 169.96 302.496 169.624 303.456 169.144L306.624 193.048C304.224 193.816 301.776 194.392 299.28 194.776C296.88 195.256 294.48 195.496 292.08 195.496C286.992 195.496 282.624 194.488 278.976 192.472C275.328 190.456 272.16 187.384 269.472 183.256C266.88 179.224 264.624 174.088 262.704 167.848L287.184 162.52ZM260.976 147.544C263.184 147.544 265.2 147.256 267.024 146.68C268.944 146.104 270.576 145.144 271.92 143.8C273.36 142.36 274.512 140.536 275.376 138.328C276.336 136.12 277.056 133.384 277.536 130.12C278.112 126.76 278.4 122.872 278.4 118.456C278.4 114.04 278.16 110.2 277.68 106.936C277.2 103.672 276.48 100.936 275.52 98.728C274.656 96.52 273.504 94.744 272.064 93.4C270.72 92.056 269.088 91.096 267.168 90.52C265.344 89.944 263.28 89.656 260.976 89.656C258.672 89.656 256.608 89.944 254.784 90.52C252.96 91.096 251.328 92.056 249.888 93.4C248.544 94.648 247.344 96.376 246.288 98.584C245.328 100.792 244.608 103.576 244.128 106.936C243.648 110.2 243.408 114.088 243.408 118.6C243.408 123.208 243.648 127.144 244.128 130.408C244.608 133.672 245.328 136.456 246.288 138.76C247.344 140.968 248.544 142.696 249.888 143.944C251.328 145.192 252.96 146.104 254.784 146.68C256.608 147.256 258.672 147.544 260.976 147.544ZM260.832 170.44C254.496 170.44 248.784 169.864 243.696 168.712C238.608 167.56 234.144 165.688 230.304 163.096C226.56 160.504 223.44 157.192 220.944 153.16C218.544 149.128 216.72 144.28 215.472 138.616C214.224 132.856 213.6 126.184 213.6 118.6C213.6 111.112 214.176 104.536 215.328 98.872C216.48 93.112 218.256 88.216 220.656 84.184C223.056 80.152 226.128 76.84 229.872 74.248C233.712 71.656 238.176 69.784 243.264 68.632C248.448 67.384 254.352 66.76 260.976 66.76C267.6 66.76 273.456 67.384 278.544 68.632C283.632 69.784 288 71.656 291.648 74.248C295.392 76.744 298.464 80.008 300.864 84.04C303.36 88.072 305.184 92.92 306.336 98.584C307.488 104.248 308.064 110.776 308.064 118.168C308.064 125.848 307.44 132.616 306.192 138.472C304.944 144.232 303.072 149.128 300.576 153.16C298.08 157.192 294.96 160.504 291.216 163.096C287.472 165.592 283.056 167.464 277.968 168.712C272.88 169.864 267.168 170.44 260.832 170.44ZM343.791 170.44C339.087 170.44 334.911 169.576 331.263 167.848C327.615 166.024 324.783 163.288 322.767 159.64C320.751 155.992 319.743 151.336 319.743 145.672V90.232H348.111V138.76C348.111 141.64 348.783 143.752 350.127 145.096C351.471 146.344 353.247 146.968 355.455 146.968C356.607 146.968 357.663 146.872 358.623 146.68C359.679 146.488 360.735 146.2 361.791 145.816C362.943 145.336 364.191 144.808 365.535 144.232V90.232H393.759V141.64C393.759 142.792 393.855 143.752 394.047 144.52C394.335 145.192 394.719 145.672 395.199 145.96C395.679 146.248 396.255 146.392 396.927 146.392C397.887 146.392 398.799 146.2 399.663 145.816L401.823 166.12C400.575 166.888 399.039 167.608 397.215 168.28C395.487 168.952 393.567 169.48 391.455 169.864C389.343 170.248 387.087 170.44 384.687 170.44C380.847 170.44 377.679 169.768 375.183 168.424C372.687 166.984 370.575 165.064 368.847 162.664C366.255 164.2 363.615 165.592 360.927 166.84C358.239 167.992 355.503 168.856 352.719 169.432C349.935 170.104 346.959 170.44 343.791 170.44ZM424.769 84.904C419.105 84.904 414.929 83.752 412.241 81.448C409.553 79.048 408.209 75.544 408.209 70.936C408.209 66.136 409.553 62.584 412.241 60.28C414.929 57.976 419.105 56.824 424.769 56.824C430.529 56.824 434.705 57.976 437.297 60.28C439.985 62.584 441.329 66.136 441.329 70.936C441.329 75.544 440.033 79.048 437.441 81.448C434.849 83.752 430.625 84.904 424.769 84.904ZM410.657 169V90.232H438.881V169H410.657ZM450.893 169V149.704L485.453 111.832H452.765V90.232H519.725V109.24L485.885 147.256H521.741V169H450.893ZM576.466 170.44C570.898 170.44 565.762 170.344 561.058 170.152C556.354 170.056 551.842 169.912 547.522 169.72C543.298 169.528 539.17 169.336 535.138 169.144V68.344C539.842 67.96 544.306 67.672 548.53 67.48C552.85 67.192 557.17 67 561.49 66.904C565.81 66.808 570.37 66.76 575.17 66.76C587.362 66.76 597.202 68.584 604.69 72.232C612.178 75.784 617.602 81.4 620.962 89.08C624.418 96.664 626.146 106.504 626.146 118.6C626.146 130.504 624.322 140.296 620.674 147.976C617.026 155.56 611.554 161.224 604.258 164.968C596.962 168.616 587.698 170.44 576.466 170.44ZM579.058 147.544C582.706 147.544 585.778 146.632 588.274 144.808C590.77 142.888 592.69 139.816 594.034 135.592C595.378 131.272 596.05 125.656 596.05 118.744C596.05 111.352 595.378 105.592 594.034 101.464C592.786 97.24 590.866 94.264 588.274 92.536C585.682 90.712 582.418 89.8 578.482 89.8C576.658 89.8 574.882 89.848 573.154 89.944C571.426 89.944 569.842 89.992 568.402 90.088C566.962 90.088 565.618 90.136 564.37 90.232V147.112C565.618 147.112 566.818 147.16 567.97 147.256C569.122 147.256 570.274 147.304 571.426 147.4C572.578 147.4 573.73 147.448 574.882 147.544C576.13 147.544 577.522 147.544 579.058 147.544ZM675.985 170.44C669.553 170.44 663.841 169.72 658.849 168.28C653.857 166.84 649.633 164.536 646.177 161.368C642.721 158.2 640.081 154.12 638.257 149.128C636.433 144.04 635.521 137.992 635.521 130.984C635.521 123.4 636.481 116.92 638.401 111.544C640.417 106.072 643.249 101.704 646.897 98.44C650.545 95.08 654.865 92.632 659.857 91.096C664.849 89.56 670.321 88.792 676.273 88.792C688.369 88.792 697.249 91.72 702.913 97.576C708.673 103.432 711.553 112.936 711.553 126.088C711.553 127.144 711.505 128.536 711.409 130.264C711.409 131.896 711.361 133.432 711.265 134.872C708.673 135.064 705.601 135.304 702.049 135.592C698.593 135.88 694.801 136.168 690.673 136.456C686.641 136.744 682.417 137.032 678.001 137.32C673.585 137.512 669.121 137.704 664.609 137.896C664.609 138.088 664.609 138.28 664.609 138.472C664.609 138.664 664.609 138.904 664.609 139.192C664.705 141.208 665.233 142.936 666.193 144.376C667.249 145.72 668.977 146.776 671.377 147.544C673.873 148.216 677.137 148.552 681.169 148.552C683.761 148.552 686.497 148.408 689.377 148.12C692.257 147.832 695.233 147.448 698.305 146.968C701.473 146.392 704.641 145.768 707.809 145.096L711.121 165.256C707.473 166.504 703.777 167.512 700.033 168.28C696.385 168.952 692.593 169.48 688.657 169.864C684.721 170.248 680.497 170.44 675.985 170.44ZM664.753 122.056C666.481 122.056 668.209 122.008 669.937 121.912C671.665 121.816 673.345 121.768 674.977 121.768C676.705 121.672 678.289 121.576 679.729 121.48C681.169 121.384 682.417 121.336 683.473 121.336C683.377 117.976 682.993 115.384 682.321 113.56C681.649 111.64 680.689 110.296 679.441 109.528C678.193 108.76 676.609 108.376 674.689 108.376C673.441 108.376 672.241 108.568 671.089 108.952C670.033 109.336 669.073 110.056 668.209 111.112C667.345 112.072 666.625 113.464 666.049 115.288C665.473 117.016 665.041 119.272 664.753 122.056ZM742.341 169L715.125 90.232L745.221 90.088L759.477 145.384L772.437 90.088L802.245 90.232L774.741 169H742.341Z" fill="white"/>
<path fill-rule="evenodd" clip-rule="evenodd" d="M400.216 212.986C392.835 213.006 385.278 213 377.555 212.993C373.58 212.989 369.561 212.985 365.5 212.985C361.439 212.985 357.42 212.989 353.445 212.993C296.093 213.045 247.859 213.089 213.284 202.03C194.826 196.127 180.532 187.132 170.863 173.61C161.269 160.193 156.037 142.048 156.037 117.143C156.037 92.2381 161.27 73.9394 170.874 60.302C180.55 46.5626 194.849 37.2869 213.304 31.0994C249.427 18.9882 300.476 18.9937 361.245 19.0002C362.658 19.0003 364.076 19.0005 365.5 19.0005C366.924 19.0005 368.342 19.0003 369.755 19.0002C430.524 18.9937 481.573 18.9882 517.696 31.0994C536.151 37.2869 550.45 46.5626 560.126 60.302C569.73 73.9394 574.963 92.2381 574.963 117.143C574.963 142.048 569.731 160.193 560.137 173.61C550.468 187.132 536.174 196.127 517.716 202.03C493.99 209.619 463.832 211.979 428.709 212.696C439.972 211.033 450.847 208.99 461.01 206.655C475.315 203.369 488.222 199.499 498.818 195.286C509.389 191.083 517.743 186.506 522.884 181.759C523.36 181.318 523.504 180.393 523.206 179.691C522.907 178.989 522.278 178.777 521.802 179.217C516.928 183.719 508.816 188.204 498.287 192.39C487.781 196.567 474.951 200.416 460.696 203.691C442.244 207.931 421.428 211.204 400.216 212.986ZM400.263 215.987C506.297 215.696 577 209.749 577 117.143C577 15.9755 492.619 15.9856 369.974 16.0004C368.488 16.0005 366.997 16.0007 365.5 16.0007C364.003 16.0007 362.512 16.0005 361.026 16.0004C238.381 15.9856 154 15.9755 154 117.143C154 216.18 234.863 216.104 353.326 215.993C357.008 215.989 360.727 215.986 364.482 215.985C364.821 215.985 365.16 215.985 365.5 215.985C369.6 215.985 373.659 215.989 377.674 215.993C385.366 216 392.9 216.007 400.263 215.987Z" fill="#B114FF"/>
</svg>
