<svg width="32" height="32" viewBox="0 0 32 32" fill="none" xmlns="http://www.w3.org/2000/svg">
<circle cx="16" cy="16" r="16" fill="#FF14B1"/>
<g clip-path="url(#clip0_430_4917)">
<path d="M15.166 23.5C15.166 23.1685 15.0343 22.8505 14.7999 22.6161C14.5655 22.3817 14.2475 22.25 13.916 22.25C13.5845 22.25 13.2666 22.3817 13.0321 22.6161C12.7977 22.8505 12.666 23.1685 12.666 23.5H8.49935C8.27834 23.5 8.06637 23.4122 7.91009 23.2559C7.75381 23.0996 7.66602 22.8877 7.66602 22.6667V9.33333C7.66602 9.11232 7.75381 8.90036 7.91009 8.74408C8.06637 8.5878 8.27834 8.5 8.49935 8.5H12.666C12.666 8.83152 12.7977 9.14946 13.0321 9.38388C13.2666 9.6183 13.5845 9.75 13.916 9.75C14.2475 9.75 14.5655 9.6183 14.7999 9.38388C15.0343 9.14946 15.166 8.83152 15.166 8.5H23.4993C23.7204 8.5 23.9323 8.5878 24.0886 8.74408C24.2449 8.90036 24.3327 9.11232 24.3327 9.33333V13.9167C23.7801 13.9167 23.2502 14.1362 22.8595 14.5269C22.4688 14.9176 22.2493 15.4475 22.2493 16C22.2493 16.5525 22.4688 17.0824 22.8595 17.4731C23.2502 17.8638 23.7801 18.0833 24.3327 18.0833V22.6667C24.3327 22.8877 24.2449 23.0996 24.0886 23.2559C23.9323 23.4122 23.7204 23.5 23.4993 23.5H15.166ZM13.916 14.75C14.2475 14.75 14.5655 14.6183 14.7999 14.3839C15.0343 14.1495 15.166 13.8315 15.166 13.5C15.166 13.1685 15.0343 12.8505 14.7999 12.6161C14.5655 12.3817 14.2475 12.25 13.916 12.25C13.5845 12.25 13.2666 12.3817 13.0321 12.6161C12.7977 12.8505 12.666 13.1685 12.666 13.5C12.666 13.8315 12.7977 14.1495 13.0321 14.3839C13.2666 14.6183 13.5845 14.75 13.916 14.75ZM13.916 19.75C14.2475 19.75 14.5655 19.6183 14.7999 19.3839C15.0343 19.1495 15.166 18.8315 15.166 18.5C15.166 18.1685 15.0343 17.8505 14.7999 17.6161C14.5655 17.3817 14.2475 17.25 13.916 17.25C13.5845 17.25 13.2666 17.3817 13.0321 17.6161C12.7977 17.8505 12.666 18.1685 12.666 18.5C12.666 18.8315 12.7977 19.1495 13.0321 19.3839C13.2666 19.6183 13.5845 19.75 13.916 19.75Z" fill="white"/>
</g>
<defs>
<clipPath id="clip0_430_4917">
<rect width="20" height="20" fill="white" transform="translate(6 6)"/>
</clipPath>
</defs>
</svg>
