<?xml version="1.0" encoding="UTF-8" standalone="no"?>
<svg
   xmlns:dc="http://purl.org/dc/elements/1.1/"
   xmlns:cc="http://creativecommons.org/ns#"
   xmlns:rdf="http://www.w3.org/1999/02/22-rdf-syntax-ns#"
   xmlns:svg="http://www.w3.org/2000/svg"
   xmlns="http://www.w3.org/2000/svg"
   xmlns:sodipodi="http://sodipodi.sourceforge.net/DTD/sodipodi-0.dtd"
   xmlns:inkscape="http://www.inkscape.org/namespaces/inkscape"
   width="96mm"
   height="136mm"
   viewBox="0 0 95.999997 136"
   version="1.1"
   id="svg8"
   sodipodi:docname="alerta_rosa_logotipo_simple.svg"
   inkscape:version="1.0.2-2 (e86c870879, 2021-01-15)">
  <defs
     id="defs2" />
  <sodipodi:namedview
     id="base"
     pagecolor="#ffffff"
     bordercolor="#666666"
     borderopacity="1.0"
     inkscape:pageopacity="0.0"
     inkscape:pageshadow="2"
     inkscape:zoom="0.7"
     inkscape:cx="-17.504968"
     inkscape:cy="300.51949"
     inkscape:document-units="mm"
     inkscape:current-layer="layer1"
     inkscape:document-rotation="0"
     showgrid="false"
     units="mm"
     inkscape:window-width="1920"
     inkscape:window-height="1057"
     inkscape:window-x="-8"
     inkscape:window-y="-8"
     inkscape:window-maximized="1" />
  <metadata
     id="metadata5">
    <rdf:RDF>
      <cc:Work
         rdf:about="">
        <dc:format>image/svg+xml</dc:format>
        <dc:type
           rdf:resource="http://purl.org/dc/dcmitype/StillImage" />
        <dc:title></dc:title>
      </cc:Work>
    </rdf:RDF>
  </metadata>
  <g
     inkscape:label="Layer 1"
     inkscape:groupmode="layer"
     id="layer1">
    <g
       id="g946"
       transform="translate(-6.8035712,14.363096)"
       inkscape:export-filename="C:\Users\vinic\Desktop\logo_simple.png"
       inkscape:export-xdpi="600"
       inkscape:export-ydpi="600">
      <path
         style="fill:#ffffff;stroke:#000000;stroke-width:1.469;stroke-miterlimit:4;stroke-dasharray:none"
         d="m 50.358006,98.911029 c -9.78799,-0.98938 -17.68047,-8.544644 -22.36212,-21.406654 -0.3883,-1.06678 -0.99905,-2.69858 -1.35722,-3.62622 -1.14644,-2.9692 -1.78388,-5.57851 -2.00604,-8.21154 l -0.13557,-1.6068 -1.59202,-2.09028 c -5.38312,-7.0679 -9.81116,-13.63629 -11.63205,-17.25457 -1.3987605,-2.77945 -1.7115805,-4.15016 -1.3442805,-5.89017 0.2941705,-1.39354 0.8879205,-2.02403 1.9061005,-2.02403 1.33369,0 2.16734,0.7048 5.33268,4.50847 4.01926,4.82979 11.20924,13.62333 11.86466,14.51081 0.6296,0.85252 1.27087,1.19734 1.92253,1.03378 0.58801,-0.14758 1.41529,-0.98758 1.41529,-1.43705 0,-0.19593 -0.91983,-2.68741 -2.04405,-5.53663 -1.98541,-5.03178 -5.66025,-15.74063 -7.04458,-20.52859 -1.55436,-5.37604 -2.16024,-8.83612 -1.86781,-10.66667 0.24185,-1.51391 0.75087,-2.62507 1.5215,-3.32128 1.17612,-1.06256 2.51414,-0.95314 3.77606,0.30878 0.93744,0.93744 1.60059,2.14872 2.50435,4.57433 0.41535,1.11475 1.38091,3.54347 2.1457,5.39716 0.76478,1.8537 1.84183,4.47087 2.39343,5.81595 0.95968,2.34015 4.79099,12.60543 6.11892,16.39448 0.34797,0.99291 0.76596,1.92589 0.92886,2.07331 0.76006,0.68785 2.23288,0.40492 2.45277,-0.47118 0.0529,-0.21077 -0.48014,-3.72007 -1.18454,-7.79846 -0.92595,-5.36119 -1.46499,-9.09715 -1.94597,-13.48705 -0.36589,-3.33949 -0.85598,-7.70361 -1.08909,-9.69803 -0.95913,-8.20632 -0.93424,-8.7531504 0.48652,-10.6843104 1.24605,-1.6937002 3.8649,-1.7726602 5.95362,-0.17952 0.98085,0.74813 1.31839,1.65577 1.98677,5.3422704 0.39373,2.17171 1.19289,6.41312 3.26485,17.32786 0.5547,2.92206 1.20926,6.55394 1.45458,8.07085 1.15435,7.1378 2.52872,9.87789 4.22117,8.4158 0.39899,-0.34469 0.50075,-0.71975 1.10966,-4.09004 1.23328,-6.82611 2.317705,-13.62364 2.852155,-17.87811 0.95152,-7.57458 1.82796,-12.03365 2.70199,-13.74689 0.76744,-1.5043104 2.10044,-2.5289304 3.29005,-2.5289304 2.04137,0 3.45079,2.4592704 3.72636,6.5020804 0.13857,2.03286 -0.37513,8.49162 -2.31331,29.08547 -0.93321,9.91562 -0.94019,10.34385 -0.22719,13.92869 0.77151,3.87898 2.26863,7.66743 3.52748,8.92629 0.877,0.87699 1.66171,1.1524 3.0344,1.065 2.11145,-0.13445 4.47329,-1.75734 6.75953,-4.64469 2.3016,-2.90673 5.65222,-5.11588 9.93067,-6.54754 3.73204,-1.24882 5.96323,-1.1499 7.7879,0.34528 0.728799,0.59719 1.589109,2.05719 1.589109,2.69681 0,0.79618 -0.87312,2.10459 -2.164029,3.24289 -0.71144,0.62734 -2.23977,2.04161 -3.39629,3.14283 -1.15652,1.10121 -2.7447,2.5057 -3.5293,3.12108 -2.17614,1.70678 -2.67026,2.17917 -3.82117,3.65308 -1.41622,1.81367 -3.09186,4.48647 -4.80837,7.6698 -1.32962,2.46581 -1.51541,2.72034 -3.27206,4.48258 -2.86736,2.87648 -6.81182,5.8945 -11.91825,9.11898 -1.42656,0.90081 -3.32956,1.96394 -4.22888,2.36252 -4.03731,1.789334 -8.798205,2.629924 -12.675475,2.238004 z"
         id="path851"
         inkscape:export-filename="C:\Users\vinic\Desktop\logo.png"
         inkscape:export-xdpi="600"
         inkscape:export-ydpi="600" />
      <path
         style="fill:#dd61e8;fill-opacity:1;stroke-width:0.216;stroke-miterlimit:4;stroke-dasharray:none"
         d="m 63.644481,94.351305 c -1.21386,-1.46294 -14.665955,-14.91672 -14.839625,-14.84149 -0.244128,0.10573 -3.881829,4.01945 -7.553853,8.12695 -2.775797,3.10499 -3.472567,3.76697 -4.159633,3.95198 -0.453922,0.12223 -0.946991,0.36885 -1.09571,0.54804 -0.200883,0.24206 -0.344048,0.26469 -0.556887,0.088 -0.351201,-0.29147 -0.507594,-0.20169 -2.169386,1.24528 -0.727527,0.63347 -1.416754,1.15176 -1.531615,1.15176 -0.114862,0 -0.419189,-0.2239 -0.676285,-0.49757 -0.428495,-0.4561 -0.440056,-0.53668 -0.138745,-0.96686 0.300732,-0.42935 0.290578,-0.50741 -0.119336,-0.91732 -0.456818,-0.45681 -0.442829,-0.54254 0.252631,-1.54797 0.536231,-0.77523 0.507833,-0.84369 -0.284276,-0.68527 l -0.681707,0.13634 0.928508,-1.22979 c 0.51068,-0.6764 0.884967,-1.27334 0.831748,-1.32656 -0.05322,-0.0532 -0.451333,0.14417 -0.884702,0.43865 -0.86055,0.58477 -1.243834,0.67256 -1.243834,0.28492 0,-0.13779 1.098716,-1.37974 2.44159,-2.75989 1.342874,-1.38016 4.41122,-4.52829 6.818546,-6.99584 2.407325,-2.46756 4.376954,-4.57131 4.376954,-4.67502 0,-0.29718 -2.659391,-3.36087 -5.453247,-6.28228 -2.14789,-2.24596 -2.556606,-2.7815 -2.560651,-3.35516 -0.0027,-0.37545 -0.195296,-0.92615 -0.42811,-1.22378 -0.23483,-0.30022 -0.42544,-0.88219 -0.42811,-1.30712 -0.0027,-0.42128 -0.19885,-1.14655 -0.436005,-1.61172 -0.372457,-0.73055 -0.391338,-0.90633 -0.138609,-1.29043 0.16092,-0.24456 0.671533,-0.53564 1.134692,-0.64685 0.463161,-0.11121 0.877573,-0.22785 0.920917,-0.25919 0.04335,-0.0313 -0.12712,-0.39021 -0.378808,-0.79744 -0.466395,-0.75465 -0.611904,-1.66342 -0.266341,-1.66342 0.28373,0 1.448776,1.38537 3.246745,3.86074 0.878951,1.21011 1.685623,2.20019 1.792603,2.20019 0.577587,0 0.305717,-0.84661 -0.881003,-2.74349 -1.175625,-1.87915 -1.681699,-3.2669 -1.117686,-3.06489 0.312831,0.11203 2.476944,2.66745 6.660475,7.86477 2.108286,2.61919 3.858914,4.79964 3.890283,4.84543 0.0697,0.10179 2.460187,-2.0355 7.203478,-6.44048 1.970229,-1.82971 4.395824,-3.92398 5.390184,-4.65393 0.99436,-0.72995 2.73749,-2.13079 3.87359,-3.11299 2.33253,-2.01653 3.38774,-2.43596 1.61666,-0.64259 -0.62097,0.62879 -1.12903,1.21324 -1.12903,1.29878 0,0.37976 1.51996,0.12405 2.09389,-0.35227 2.28629,-1.89744 3.31765,-2.46164 3.31765,-1.81488 0,0.15117 -0.92538,1.19638 -2.05639,2.32269 -1.94527,1.93718 -2.48087,2.814 -1.71891,2.814 0.18561,0 1.08663,-0.56901 2.00227,-1.26448 0.91564,-0.69548 1.89231,-1.38521 2.17038,-1.53277 1.01621,-0.53925 0.75993,0.0545 -0.55969,1.29655 -0.7441,0.70038 -1.3529,1.32705 -1.3529,1.39262 0,0.0655 0.2874,-0.0294 0.63865,-0.21105 2.00246,-1.03551 0.93615,0.16681 -7.58083,8.5478 l -8.472166,8.33691 0.458471,0.77705 c 0.252162,0.42738 0.968617,1.20513 1.592133,1.72832 2.526737,2.12021 7.318142,6.52838 7.211682,6.63484 -0.0626,0.0626 -0.65191,-0.29241 -1.30953,-0.78891 -0.65763,-0.49652 -1.36072,-0.96609 -1.56243,-1.04349 -0.5172,-0.19847 2.92694,3.82691 4.99247,5.83503 1.75364,1.7049 1.9599,2.1884 0.73653,1.72664 -0.85554,-0.32293 -0.94752,-0.23094 -0.48103,0.48102 0.82135,1.25354 -0.33132,0.71518 -1.53722,-0.71796 -0.61817,-0.73465 -1.68774,-1.39646 -1.90527,-1.17893 -0.0716,0.0716 0.24199,0.57913 0.69689,1.12779 1.5544,1.8748 2.19243,2.89899 2.19243,3.51938 0,0.59909 -0.0325,0.61691 -1.12477,0.61691 h -1.12478 l 0.66054,0.7035 c 0.68853,0.73331 1.05835,1.46111 0.74243,1.46111 -0.10093,0 -0.52708,-0.41398 -0.94691,-0.91995 z m 0.92283,-2.48931 c -0.006,-0.21365 -0.84997,-1.29009 -0.85623,-1.0925 -0.01,0.30744 0.50317,1.25484 0.67932,1.25484 0.1,0 0.17955,-0.0731 0.17691,-0.16234 z m -28.25746,-3.27897 c -0.135871,-0.13588 -0.522252,0.41389 -0.516949,0.73553 0.0019,0.11906 0.145577,0.0287 0.319141,-0.20066 0.173565,-0.2294 0.262578,-0.4701 0.197808,-0.53487 z m 1.305178,-1.01494 c 0.526124,-0.80296 0.254846,-0.89266 -0.308219,-0.10189 -0.259203,0.36401 -0.37844,0.66184 -0.264971,0.66184 0.113468,0 0.371404,-0.25195 0.57319,-0.55993 z m 13.848748,-6.67382 c -0.23091,-0.16886 -0.465875,-0.26098 -0.522143,-0.2047 -0.119131,0.11912 0.439058,0.50351 0.738264,0.50837 0.112046,0.002 0.01478,-0.13484 -0.216121,-0.30367 z m -6.849111,-1.75517 c 1.90721,-2.03613 1.888376,-2.20756 -0.03563,-0.32434 -0.909201,0.88992 -1.653092,1.64484 -1.653092,1.67758 0,0.29584 0.577624,-0.16703 1.688725,-1.35324 z m 7.646796,-0.26723 c -0.30036,-0.56123 -1.090307,-1.22582 -1.257868,-1.05827 -0.158236,0.15824 0.979561,1.4395 1.278315,1.4395 0.100975,0 0.09177,-0.17155 -0.02045,-0.38123 z m 2.569873,-3.16724 c 0,-0.0468 -0.151172,-0.14307 -0.335933,-0.21398 -0.192634,-0.074 -0.279522,-0.0376 -0.203687,0.085 0.12712,0.20569 0.53962,0.30424 0.53962,0.12892 z m -9.957238,-3.89296 c 0,-0.0449 -0.170463,-0.21541 -0.378808,-0.37881 -0.343321,-0.26925 -0.350977,-0.26159 -0.08173,0.0817 0.28278,0.36058 0.460535,0.47525 0.460535,0.29709 z m 10.571788,-7.92084 c 1.92402,-1.72269 3.498231,-3.22004 3.498231,-3.32744 0,-0.1074 -0.18502,-0.0616 -0.41116,0.10168 -0.90131,0.65103 -5.414632,4.78479 -6.840314,6.26504 -1.782922,1.85117 -1.007172,1.22299 3.753243,-3.03931 z m -13.320919,2.72551 c -0.235218,-0.40554 -1.768654,-2.08264 -1.904234,-2.08264 -0.322082,0 3.47e-4,0.50788 0.882373,1.38992 1.009062,1.00905 1.332528,1.22833 1.021861,0.69272 z m 3.654662,-0.39785 c -0.155325,-0.15532 -0.256146,-0.16809 -0.256146,-0.0325 0,0.28893 0.25599,0.54491 0.400454,0.40045 0.06152,-0.0615 -0.0034,-0.22711 -0.144308,-0.36799 z m -1.535483,-2.0814 c -0.252486,-0.47178 -0.885281,-1.02951 -0.885281,-0.78027 0,0.17334 0.86927,1.17688 1.019427,1.17688 0.04296,0 -0.01741,-0.17847 -0.134146,-0.39661 z m -4.781591,-0.53974 c 0,-0.0388 -0.259228,-0.30664 -0.57606,-0.59527 -0.525506,-0.47871 -0.532235,-0.27602 -0.01312,0.3952 0.18766,0.24264 0.589178,0.37899 0.589178,0.20007 z m 25.321917,20.9541 c -0.22876,-0.27562 -0.21536,-0.3073 0.0817,-0.1933 0.19543,0.075 0.35532,0.22333 0.35532,0.32965 0,0.27835 -0.1253,0.23927 -0.43704,-0.13635 z"
         id="path867"
         inkscape:export-filename="C:\Users\vinic\Desktop\logo.png"
         inkscape:export-xdpi="600"
         inkscape:export-ydpi="600" />
    </g>
  </g>
</svg>
