<svg width="119" height="119" viewBox="0 0 119 119" fill="none" xmlns="http://www.w3.org/2000/svg">
<g clip-path="url(#clip0_126_102)">
<circle cx="59.5" cy="59.5" r="59.5" fill="#575A89"/>
<path d="M84.8188 84.7876H55.0688V44.5244L80.7925 58.6165L84.8188 84.7876Z" fill="#2F2E41"/>
<path d="M60.5647 77.6813C71.2321 77.6813 79.8797 69.0337 79.8797 58.3664C79.8797 47.6991 71.2321 39.0515 60.5647 39.0515C49.8974 39.0515 41.2498 47.6991 41.2498 58.3664C41.2498 69.0337 49.8974 77.6813 60.5647 77.6813Z" fill="#FFB6B6"/>
<path d="M49.4767 80.5374L48.6041 71.7168L66.0293 68.4585L76.3188 93.5111L58.4241 114.09L45.6741 89.0374L49.4767 80.5374Z" fill="#FFB6B6"/>
<path d="M102.233 100.902C102.016 101.128 101.794 101.351 101.573 101.573C100.87 102.275 100.155 102.957 99.4231 103.619C88.4626 113.56 74.3996 119 59.5 119C45.7636 119 32.7384 114.376 22.2007 105.865C22.194 105.861 22.1895 105.856 22.1828 105.85C21.8629 105.592 21.5475 105.331 21.2321 105.064C21.288 104.903 21.3484 104.745 21.4088 104.588C24.7976 95.7592 31.4903 91.4399 35.5524 89.5497C37.5655 88.6125 38.9322 88.2703 38.9322 88.2703L43.7012 79.6808L47.0587 85.944L49.5326 90.5608L59.6834 109.5L68.4407 87.6954L71.1539 80.9357L71.8496 79.2043L75.1579 81.779L78.2895 84.2149L84.5951 85.6062L89.7108 86.7358L96.6584 88.2703C99.4679 90.5586 101.177 94.9115 102.132 100.32C102.168 100.513 102.201 100.707 102.233 100.902Z" fill="#2B2245"/>
<path d="M50.4049 36.4164C52.7576 32.4643 57.0787 29.7528 61.6607 29.3531C66.2426 28.9535 70.9679 30.876 73.9693 34.361C75.7579 36.4378 76.9306 38.9811 78.674 41.0959C82.4257 45.6469 88.823 48.3078 90.4619 53.9736C91.1771 56.4459 90.8207 59.0855 90.4589 61.6337C90.1487 63.8177 89.8385 66.0018 89.5284 68.1859C89.287 69.8856 89.0555 71.6774 89.6929 73.2715C90.4406 75.1417 92.23 76.3666 93.3869 78.0153C95.3555 80.8206 95.2116 84.9279 93.0515 87.5886C92.1147 88.7424 90.8727 89.6126 89.8906 90.7282C88.9084 91.8437 88.1799 93.3689 88.5913 94.7971C89.3793 97.533 93.6699 98.1892 94.1405 100.997C94.3811 102.433 93.3895 103.866 92.0903 104.523C90.791 105.179 89.2616 105.199 87.8166 105.023C82.3244 104.355 77.2392 100.924 74.5652 96.0801C71.8911 91.2366 71.6964 85.1049 74.0578 80.1015C75.9972 75.9921 79.6018 72.3607 79.5626 67.8168C79.5412 65.3414 78.4057 63.0293 77.2955 60.8167C75.023 56.288 72.7505 51.7594 70.4781 47.2307C69.2608 44.8048 67.8481 42.1907 65.342 41.1486C63.4052 40.3432 61.2076 40.6556 59.136 40.985C57.0645 41.3144 54.87 41.6351 52.9274 40.8437C50.9849 40.0523 49.5171 37.7009 50.4426 35.8186" fill="#2F2E41"/>
<path d="M53.7897 36.623C50.058 35.3946 45.8719 37.3665 43.3455 40.3751C40.8192 43.3837 39.5937 47.2436 38.4263 50.9947C37.7576 53.1434 37.0889 55.2921 36.4202 57.4408C35.7911 59.462 35.1621 61.4833 34.533 63.5046C33.7931 65.882 33.0471 68.4078 33.6544 70.8226C34.0934 72.5684 35.223 74.1535 35.2473 75.9535C35.2727 77.8337 34.0952 79.4843 33.0633 81.0563C32.0314 82.6283 31.0628 84.4959 31.5544 86.3109C32.3022 89.0715 36.1404 90.589 35.93 93.4414C35.8598 94.3933 35.3093 95.2738 35.3193 96.2283C35.332 97.4427 36.2828 98.492 37.3968 98.9759C38.5107 99.4597 39.7637 99.486 40.978 99.4646C44.7027 99.3991 48.4206 98.9568 52.0566 98.1466C53.4555 97.8348 54.8781 97.4525 56.0426 96.6169C57.2071 95.7814 58.0758 94.397 57.9242 92.9718C57.6881 90.7509 55.3002 89.4909 54.0952 87.6105C52.9116 85.7635 52.939 83.4232 52.4286 81.2897C51.7272 78.3576 49.9949 75.7977 48.6945 73.0777C43.8054 62.8518 45.5169 49.8174 52.8801 41.2003C53.5311 40.4383 54.2424 39.6719 54.514 38.7072C54.7856 37.7426 54.4355 36.5135 53.4918 36.176" fill="#2F2E41"/>
</g>
<defs>
<clipPath id="clip0_126_102">
<rect width="119" height="119" fill="white"/>
</clipPath>
</defs>
</svg>
