<svg width="199" height="186" viewBox="0 0 199 186" fill="none" xmlns="http://www.w3.org/2000/svg">
<g clip-path="url(#clip0_35_218)">
<path d="M67.3643 83.64C59.1148 83.64 51.0506 81.1873 44.1915 76.5921C37.3323 71.9968 31.9863 65.4655 28.8293 57.8238C25.6724 50.1822 24.8464 41.7736 26.4558 33.6613C28.0652 25.5491 32.0377 18.0974 37.8709 12.2488C43.7042 6.40018 51.1361 2.41721 59.2271 0.803578C67.318 -0.810056 75.7045 0.0181212 83.3259 3.18338C90.9474 6.34864 97.4616 11.7088 102.045 18.5861C106.628 25.4633 109.074 33.5488 109.074 41.82C109.062 52.9075 104.663 63.5373 96.8438 71.3774C89.0243 79.2174 78.4226 83.6275 67.3643 83.64ZM67.3643 0.658604C59.2447 0.658604 51.3076 3.07268 44.5564 7.59555C37.8053 12.1184 32.5434 18.547 29.4362 26.0682C26.329 33.5895 25.516 41.8657 27.1001 49.8502C28.6841 57.8347 32.594 65.169 38.3354 70.9255C44.0768 76.6821 51.3917 80.6023 59.3552 82.1905C67.3187 83.7788 75.5731 82.9636 83.0746 79.8482C90.576 76.7328 96.9876 71.457 101.499 64.6881C106.01 57.9191 108.417 49.961 108.417 41.82C108.417 30.9033 104.092 20.4338 96.3931 12.7145C88.6942 4.99524 78.2522 0.658604 67.3643 0.658604Z" fill="#F2F2F2"/>
<path d="M41.2091 43.3193C40.05 39.0822 49.3986 35.4489 51.8535 38.861C52.1948 38.3759 53.4564 38.0812 54.0352 38.23C54.6017 38.4187 55.1254 38.7181 55.5757 39.111C56.2288 39.614 56.9055 40.1348 57.3062 40.858C57.71 41.5782 57.7723 42.5604 57.2291 43.1853C56.7987 43.6823 55.5282 44.0038 54.8811 44.1347C54.43 44.227 54.05 44.3014 53.7235 44.355C53.4269 43.9265 53.2903 43.4071 53.3376 42.8877C53.1178 43.0364 52.9336 43.2319 52.7981 43.4604C52.6626 43.6888 52.5793 43.9445 52.554 44.2091C52.5451 44.3192 56.202 57.8101 56.202 57.8101C55.7627 58.0609 55.3005 58.2691 54.8218 58.4321C53.8747 56.981 53.1494 55.396 52.6697 53.7298C52.5595 54.844 52.5734 55.967 52.7113 57.078C52.7846 57.701 52.8896 58.3199 53.0259 58.9321C48.6803 59.8726 42.1441 59.5631 39.3005 55.5632L39.299 55.5135C39.2968 55.3556 39.2399 55.2034 39.1381 55.0829C39.0363 54.9625 38.8958 54.8813 38.7408 54.8532C38.5858 54.8251 38.426 54.852 38.2885 54.9292C38.1511 55.0063 38.0448 55.129 37.9876 55.2761C37.9186 55.4526 37.8551 55.6053 37.7985 55.7268C36.9704 52.7566 38.0419 49.3192 41.2091 43.3193Z" fill="#2F2E41"/>
<path d="M61.7027 178.843L64.9407 178.816L66.3739 166.002L61.5953 166.043L61.7027 178.843Z" fill="#A0616A"/>
<path d="M71.4395 182.817L66.2683 179.301L66.2487 176.977L65.1367 177.052L61.6897 177.29L60.8446 177.347L60.2312 185.557L62.6602 185.535L63.0741 183.233L64.2011 185.524L70.6387 185.47C70.9472 185.467 71.2469 185.366 71.4939 185.18C71.7409 184.995 71.9224 184.735 72.0118 184.439C72.1012 184.143 72.0939 183.826 71.991 183.534C71.888 183.242 71.6948 182.991 71.4395 182.817Z" fill="#2F2E41"/>
<path d="M29.4173 177.578L32.6184 178.066L36.0603 165.642L31.3356 164.922L29.4173 177.578Z" fill="#A0616A"/>
<path d="M38.4024 183.049L33.8528 178.755L34.201 176.458L33.0912 176.355L29.6501 176.042L28.8068 175.963L26.9025 183.973L29.3043 184.337L30.0771 182.13L30.8275 184.571L37.1921 185.541C37.4972 185.587 37.8091 185.535 38.0824 185.391C38.3556 185.247 38.5758 185.02 38.711 184.741C38.8461 184.463 38.889 184.149 38.8335 183.845C38.778 183.54 38.627 183.262 38.4024 183.049Z" fill="#2F2E41"/>
<path d="M60.2135 89.3215L69.3939 105.807C69.3939 105.807 69.0108 139.713 70.2309 140.97C71.4509 142.228 72.5556 143.356 71.451 143.345C70.3463 143.335 69.0093 146.03 69.0093 146.03L66.7245 171.506H60.9629C60.9629 171.506 56.9088 156.482 57.773 147.915L50.9476 116.607C50.9476 116.607 46.0441 146.215 45.1604 147.101C44.2767 147.987 43.7436 147.981 44.6729 148.87C45.6022 149.759 44.6729 151.77 44.6729 151.77L34.9852 171.93L29.7304 171.265C29.7304 171.265 30.6414 154.808 33.8137 147.742V114.354C33.5748 117.217 44.7513 88.2426 37.9167 90.4173C40.079 89.7292 60.2135 89.3215 60.2135 89.3215Z" fill="#2F2E41"/>
<path d="M52.4107 57.8866L43.0783 55.9017L41.2253 59.6414L34.9852 63.2636C34.9852 63.2636 39.0075 79.7533 38.9845 82.0724C38.9263 87.9605 29.53 101.16 36.6273 100.144C43.7247 99.1288 45.1663 94.8756 47.4448 95.5481C56.8448 98.3227 68.0165 98.0286 64.215 94.217C60.4134 90.4055 61.2629 65.033 61.2629 65.033L53.8997 61.544L52.4107 57.8866Z" fill="#2B2245"/>
<path d="M34.8087 117.77C35.1837 117.322 35.3694 116.744 35.3263 116.161C35.2832 115.577 35.0147 115.034 34.578 114.646C34.488 114.568 34.3917 114.498 34.2902 114.437L35.8506 106.759L32.2434 104.594L31.24 115.344C31.0181 115.786 30.9482 116.289 31.0413 116.774C31.1345 117.26 31.3854 117.701 31.7549 118.029C32.1832 118.402 32.7416 118.589 33.3071 118.548C33.8727 118.508 34.3993 118.244 34.7709 117.815C34.7837 117.8 34.7963 117.785 34.8087 117.77Z" fill="#A0616A"/>
<path d="M32.8162 81.8427L33.1163 67.8511C33.1351 66.9716 33.3293 66.1047 33.6874 65.3016C34.0456 64.4984 34.5603 63.7753 35.2015 63.1747C35.8426 62.5741 36.5972 62.1083 37.4206 61.8045C38.2441 61.5008 39.1199 61.3654 39.9964 61.4063C42.8478 61.5399 42.0881 62.6823 42.8455 65.4419C44.0763 69.9277 44.5497 72.5208 44.2526 73.1487C44.1521 73.3613 44.0461 73.5651 43.9442 73.761C43.4192 74.7705 43.04 75.4998 44.0039 76.1985C44.3852 76.4514 44.8004 76.6485 45.2371 76.7839C45.6722 76.9389 45.9866 77.0508 46.0087 77.2975C46.0299 77.5362 45.7612 77.7838 45.0169 78.2107C43.0187 79.3574 41.2858 86.2108 41.2689 86.2785L35.4703 110.667L30.851 110.437L32.8162 81.8427Z" fill="#2B2245"/>
<path d="M90.9412 100.959C90.3634 100.877 89.8406 100.572 89.4839 100.108C89.1271 99.6454 88.9647 99.0611 89.0312 98.4798C89.0465 98.3618 89.0716 98.2454 89.1061 98.1316L82.8291 93.4632L84.0711 89.4363L91.9802 96.7635C92.4397 96.9435 92.8269 97.2711 93.0813 97.6949C93.3356 98.1188 93.4429 98.6152 93.3863 99.1066C93.3514 99.3859 93.262 99.6556 93.1232 99.9003C92.9843 100.145 92.7988 100.36 92.5772 100.533C92.3555 100.705 92.1021 100.833 91.8313 100.907C91.5606 100.982 91.2779 101.002 90.9993 100.967C90.9799 100.965 90.9605 100.962 90.9412 100.959Z" fill="#A0616A"/>
<path d="M89.0005 92.8517L85.7164 96.1169L65.1518 81.8528C65.094 81.8138 59.2382 77.8746 56.9873 78.3598C56.149 78.5406 55.7841 78.5364 55.6408 78.3445C55.4929 78.1462 55.6523 77.8523 55.8728 77.4456C56.1075 77.0523 56.2852 76.6275 56.4004 76.184C56.6522 75.0184 55.884 74.7297 54.8208 74.3302C54.6143 74.2527 54.3997 74.172 54.1833 74.0811C53.5438 73.8128 52.1684 71.5662 50.0954 67.4039C48.8203 64.843 47.4938 64.5018 49.5267 62.4925C50.1516 61.875 50.8935 61.3892 51.7087 61.0636C52.5238 60.738 53.3956 60.5793 54.2729 60.5968C55.1501 60.6142 56.015 60.8075 56.8166 61.1653C57.6182 61.523 58.3403 62.038 58.9403 62.6799L68.4861 72.8903L89.0005 92.8517Z" fill="#2B2245"/>
<path d="M48.4733 55.7615C52.6783 55.7615 56.0872 52.3436 56.0872 48.1275C56.0872 43.9114 52.6783 40.4935 48.4733 40.4935C44.2683 40.4935 40.8594 43.9114 40.8594 48.1275C40.8594 52.3436 44.2683 55.7615 48.4733 55.7615Z" fill="#A0616A"/>
<path d="M37.0534 43.9145C35.8944 39.6774 45.2429 36.0441 47.6978 39.4562C48.0392 38.9711 49.3007 38.6764 49.8795 38.8253C50.4461 39.0139 50.9697 39.3133 51.4201 39.7062C52.0731 40.2092 52.7499 40.73 53.1506 41.4532C53.5543 42.1734 53.6166 43.1556 53.0734 43.7806C52.643 44.2776 51.3726 44.599 50.7255 44.7299C50.2743 44.8222 49.8944 44.8966 49.5679 44.9502C49.2713 44.5218 49.1346 44.0023 49.182 43.4829C48.9622 43.6316 48.778 43.8271 48.6425 44.0556C48.507 44.2841 48.4236 44.5398 48.3983 44.8043C48.3894 44.9145 52.0464 58.4054 52.0464 58.4054C51.607 58.6561 51.1448 58.8644 50.6661 59.0274C49.7191 57.5762 48.9938 55.9912 48.5141 54.325C48.4039 55.4392 48.4178 56.5622 48.5557 57.6732C48.629 58.2962 48.734 58.9151 48.8703 59.5274C44.5247 60.4678 37.9885 60.1583 35.1448 56.1584L35.1434 56.1087C35.1412 55.9508 35.0843 55.7986 34.9824 55.6782C34.8806 55.5577 34.7402 55.4765 34.5852 55.4485C34.4302 55.4204 34.2703 55.4473 34.1329 55.5244C33.9955 55.6015 33.8891 55.7242 33.832 55.8713C33.763 56.0478 33.6995 56.2006 33.6428 56.3221C32.8147 53.3518 33.8863 49.9144 37.0534 43.9145Z" fill="#2F2E41"/>
<path d="M17.8199 180.176C17.6673 180.183 17.5162 180.143 17.3871 180.061C17.2579 179.979 17.1571 179.859 17.0981 179.718C17.0392 179.576 17.025 179.42 17.0575 179.27C17.09 179.121 17.1676 178.985 17.2798 178.881L17.3309 178.677C17.3241 178.661 17.3174 178.644 17.3106 178.628C17.1568 178.264 16.8991 177.953 16.5698 177.736C16.2406 177.518 15.8545 177.402 15.46 177.404C15.0656 177.405 14.6803 177.523 14.3527 177.744C14.0251 177.964 13.7697 178.277 13.6186 178.642C13.0148 180.1 12.246 181.561 12.0567 183.102C11.9733 183.784 12.0085 184.475 12.1607 185.144C10.7424 182.042 10.006 178.671 10.0012 175.259C10.0009 174.402 10.0484 173.547 10.1433 172.696C10.2218 171.998 10.3307 171.305 10.47 170.618C11.2302 166.887 12.8623 163.389 15.2322 160.413C16.3793 159.786 17.3069 158.821 17.8902 157.648C18.1014 157.227 18.2508 156.777 18.3335 156.313C18.2041 156.33 17.8456 154.354 17.9432 154.233C17.7629 153.958 17.4401 153.822 17.2432 153.554C16.2637 152.223 14.9143 152.455 14.2098 154.264C12.7049 155.026 12.6903 156.289 13.6137 157.504C14.2012 158.276 14.2819 159.322 14.7974 160.149C14.7443 160.218 14.6892 160.283 14.6361 160.352C13.6667 161.601 12.8218 162.943 12.1135 164.359C12.2858 162.773 12.0802 161.17 11.5137 159.679C10.9395 158.291 9.86337 157.121 8.91569 155.921C8.66504 155.598 8.32466 155.357 7.93756 155.229C7.55047 155.1 7.13405 155.09 6.74093 155.198C6.34781 155.307 5.99565 155.53 5.72896 155.839C5.46226 156.149 5.29301 156.53 5.2426 156.936C5.24066 156.954 5.23876 156.971 5.23691 156.989C5.37767 157.069 5.51546 157.153 5.65028 157.242C5.81964 157.356 5.95088 157.518 6.02678 157.708C6.10269 157.897 6.11972 158.105 6.07566 158.305C6.0316 158.504 5.92851 158.685 5.77987 158.825C5.63124 158.965 5.444 159.056 5.24269 159.087L5.22207 159.09C5.27221 159.599 5.36085 160.103 5.48722 160.598C4.27146 165.312 6.89619 167.029 10.644 167.106C10.7267 167.149 10.8073 167.191 10.89 167.232C10.1784 169.254 9.73203 171.36 9.56213 173.498C9.46595 174.759 9.47163 176.025 9.57911 177.285L9.57275 177.241C9.30121 175.84 8.55569 174.575 7.46209 173.661C5.83783 172.324 3.54306 171.831 1.79077 170.756C1.60455 170.636 1.38801 170.572 1.1667 170.571C0.945393 170.571 0.728552 170.634 0.541743 170.753C0.354934 170.871 0.205958 171.042 0.11238 171.243C0.0188017 171.444 -0.0154771 171.667 0.0135962 171.887L0.0207624 171.934C0.281972 172.041 0.536303 172.164 0.782268 172.302C0.923031 172.382 1.06082 172.466 1.19563 172.556C1.365 172.669 1.49623 172.831 1.57214 173.021C1.64804 173.21 1.66508 173.418 1.62102 173.618C1.57696 173.817 1.47387 173.999 1.32523 174.138C1.17659 174.278 0.989342 174.369 0.788031 174.4L0.767404 174.404C0.75256 174.406 0.739814 174.408 0.724998 174.41C1.17132 175.478 1.79774 176.462 2.57683 177.317C3.33702 181.433 6.602 181.823 10.0945 180.625H10.0967C10.4799 182.294 11.0351 183.919 11.7534 185.474H17.6716C17.6929 185.408 17.7119 185.34 17.731 185.274C17.1832 185.308 16.6333 185.276 16.0934 185.176C16.5325 184.636 16.9716 184.091 17.4107 183.551C17.4205 183.541 17.4297 183.53 17.4383 183.519C17.6611 183.243 17.8859 182.968 18.1086 182.692L18.1088 182.692C18.1206 181.844 18.0234 180.998 17.8199 180.176Z" fill="#F2F2F2"/>
<path d="M0.21924 185.608C0.219087 185.66 0.229089 185.711 0.248677 185.758C0.268265 185.806 0.297054 185.849 0.333379 185.886C0.369703 185.922 0.412848 185.951 0.460336 185.971C0.507825 185.99 0.558717 186 0.610086 186H83.7967C83.9003 186 83.9997 185.959 84.073 185.885C84.1463 185.812 84.1875 185.712 84.1875 185.608C84.1875 185.504 84.1463 185.405 84.073 185.331C83.9997 185.258 83.9003 185.216 83.7967 185.216H0.610086C0.558718 185.216 0.507824 185.226 0.460336 185.246C0.412848 185.265 0.369703 185.294 0.333379 185.331C0.297055 185.367 0.268265 185.41 0.248677 185.458C0.229088 185.506 0.219089 185.557 0.21924 185.608Z" fill="#CCCCCC"/>
<path d="M181.994 18.8092H98.074C97.0779 18.8092 96.0916 19.0059 95.1713 19.3881C94.2511 19.7703 93.4149 20.3305 92.7105 21.0367C92.0062 21.7429 91.4475 22.5813 91.0663 23.504C90.6851 24.4267 90.4889 25.4156 90.4889 26.4144V153.458C90.4889 155.475 91.288 157.409 92.7105 158.836C94.133 160.262 96.0623 161.063 98.074 161.063H181.994C184.006 161.063 185.935 160.262 187.358 158.836C188.78 157.409 189.579 155.475 189.579 153.458C200.712 110.283 201.054 67.91 189.579 26.4144C189.579 24.3974 188.78 22.4629 187.358 21.0367C185.935 19.6105 184.006 18.8092 181.994 18.8092ZM100.623 143.461C100.623 143.788 100.494 144.101 100.263 144.332C100.033 144.563 99.7208 144.693 99.3952 144.693H96.221C95.8953 144.693 95.583 144.563 95.3527 144.332C95.1224 144.101 94.993 143.788 94.993 143.461V140.279C94.993 139.952 95.1224 139.639 95.3527 139.408C95.583 139.177 95.8953 139.048 96.221 139.048H99.3952C99.7208 139.048 100.033 139.177 100.263 139.408C100.494 139.639 100.623 139.952 100.623 140.279V143.461ZM100.623 130.901C100.623 131.228 100.494 131.541 100.263 131.772C100.033 132.003 99.7208 132.132 99.3952 132.132H96.221C95.8953 132.132 95.583 132.003 95.3527 131.772C95.1224 131.541 94.993 131.228 94.993 130.901V127.719C94.993 127.557 95.0248 127.397 95.0865 127.248C95.1482 127.098 95.2386 126.962 95.3527 126.848C95.4667 126.734 95.6021 126.643 95.7511 126.581C95.9 126.519 96.0597 126.487 96.221 126.487H99.3952C99.5564 126.487 99.7161 126.519 99.8651 126.581C100.014 126.643 100.149 126.734 100.263 126.848C100.377 126.962 100.468 127.098 100.53 127.248C100.591 127.397 100.623 127.557 100.623 127.719V130.901ZM100.623 118.341C100.623 118.668 100.494 118.981 100.263 119.212C100.033 119.443 99.7208 119.572 99.3952 119.572H96.221C95.8953 119.572 95.583 119.443 95.3527 119.212C95.1224 118.981 94.993 118.668 94.993 118.341V115.159C94.993 114.832 95.1224 114.519 95.3527 114.288C95.583 114.057 95.8953 113.927 96.221 113.927H99.3952C99.7208 113.927 100.033 114.057 100.263 114.288C100.494 114.519 100.623 114.832 100.623 115.159V118.341ZM100.623 105.781C100.623 106.108 100.494 106.421 100.263 106.652C100.033 106.883 99.7208 107.012 99.3952 107.012H96.221C95.8953 107.012 95.583 106.883 95.3527 106.652C95.1224 106.421 94.993 106.108 94.993 105.781V102.598C94.993 102.272 95.1224 101.959 95.3527 101.728C95.583 101.497 95.8953 101.367 96.221 101.367H99.3952C99.7208 101.367 100.033 101.497 100.263 101.728C100.494 101.959 100.623 102.272 100.623 102.598V105.781ZM100.623 93.2209C100.623 93.5474 100.494 93.8606 100.263 94.0915C100.033 94.3224 99.7208 94.4521 99.3952 94.4521H96.221C95.8953 94.4521 95.583 94.3224 95.3527 94.0915C95.1224 93.8606 94.993 93.5474 94.993 93.2209V90.0384C94.993 89.7118 95.1224 89.3987 95.3527 89.1678C95.583 88.9369 95.8953 88.8071 96.221 88.8071H99.3952C99.7208 88.8071 100.033 88.9369 100.263 89.1678C100.494 89.3987 100.623 89.7118 100.623 90.0384V93.2209ZM100.623 80.6608C100.623 80.9873 100.494 81.3005 100.263 81.5314C100.033 81.7623 99.7208 81.892 99.3952 81.892H96.221C95.8953 81.892 95.583 81.7623 95.3527 81.5314C95.1224 81.3005 94.993 80.9873 94.993 80.6608V77.4783C94.993 77.1517 95.1224 76.8385 95.3527 76.6076C95.583 76.3767 95.8953 76.247 96.221 76.247H99.3952C99.7208 76.247 100.033 76.3767 100.263 76.6076C100.494 76.8385 100.623 77.1517 100.623 77.4783V80.6608ZM100.623 68.1007C100.623 68.4272 100.494 68.7404 100.263 68.9713C100.033 69.2022 99.7208 69.3319 99.3952 69.3319H96.221C95.8953 69.3319 95.583 69.2022 95.3527 68.9713C95.1224 68.7404 94.993 68.4272 94.993 68.1007V64.9181C94.993 64.5916 95.1224 64.2784 95.3527 64.0475C95.583 63.8166 95.8953 63.6869 96.221 63.6869H99.3952C99.7208 63.6869 100.033 63.8166 100.263 64.0475C100.494 64.2784 100.623 64.5916 100.623 64.9181V68.1007ZM100.623 55.5406C100.623 55.8671 100.494 56.1803 100.263 56.4112C100.033 56.6421 99.7208 56.7718 99.3952 56.7718H96.221C95.8953 56.7718 95.583 56.6421 95.3527 56.4112C95.1224 56.1803 94.993 55.8671 94.993 55.5406V52.358C94.993 52.0315 95.1224 51.7183 95.3527 51.4874C95.583 51.2565 95.8953 51.1268 96.221 51.1268H99.3952C99.7208 51.1268 100.033 51.2565 100.263 51.4874C100.494 51.7183 100.623 52.0315 100.623 52.358V55.5406ZM100.623 42.9805C100.623 43.307 100.494 43.6202 100.263 43.8511C100.033 44.082 99.7208 44.2117 99.3952 44.2117H96.221C95.8953 44.2117 95.583 44.082 95.3527 43.8511C95.1224 43.6202 94.993 43.307 94.993 42.9805V39.7979C94.993 39.4714 95.1224 39.1582 95.3527 38.9273C95.583 38.6964 95.8953 38.5667 96.221 38.5667H99.3952C99.7208 38.5667 100.033 38.6964 100.263 38.9273C100.494 39.1582 100.623 39.4714 100.623 39.7979V42.9805Z" fill="#F2F2F2"/>
<path d="M99.9068 25.5833H95.7093C95.3137 25.5833 94.993 25.9048 94.993 26.3015V30.51C94.993 30.9067 95.3137 31.2282 95.7093 31.2282H99.9068C100.302 31.2282 100.623 30.9067 100.623 30.51V26.3015C100.623 25.9048 100.302 25.5833 99.9068 25.5833Z" fill="#2B2245"/>
<path d="M173.252 41.7185H111.963C111.876 41.7185 111.792 41.6838 111.731 41.6221C111.669 41.5603 111.635 41.4766 111.635 41.3892C111.635 41.3019 111.669 41.2181 111.731 41.1564C111.792 41.0946 111.876 41.0599 111.963 41.0599H173.252C173.339 41.0599 173.422 41.0946 173.484 41.1564C173.546 41.2181 173.58 41.3019 173.58 41.3892C173.58 41.4766 173.546 41.5603 173.484 41.6221C173.422 41.6838 173.339 41.7185 173.252 41.7185Z" fill="#E6E6E6"/>
<path d="M173.252 29.2995H155.798C155.711 29.2995 155.628 29.2648 155.566 29.203C155.505 29.1412 155.47 29.0575 155.47 28.9702C155.47 28.8828 155.505 28.7991 155.566 28.7373C155.628 28.6756 155.711 28.6409 155.798 28.6409H173.252C173.339 28.6409 173.422 28.6756 173.484 28.7373C173.546 28.7991 173.58 28.8828 173.58 28.9702C173.58 29.0575 173.546 29.1412 173.484 29.203C173.422 29.2648 173.339 29.2995 173.252 29.2995Z" fill="#E6E6E6"/>
<path d="M173.252 54.1375H111.963C111.876 54.1375 111.792 54.1028 111.731 54.041C111.669 53.9793 111.635 53.8955 111.635 53.8082C111.635 53.7208 111.669 53.6371 111.731 53.5753C111.792 53.5136 111.876 53.4789 111.963 53.4789H173.252C173.339 53.4789 173.422 53.5136 173.484 53.5753C173.546 53.6371 173.58 53.7208 173.58 53.8082C173.58 53.8955 173.546 53.9793 173.484 54.041C173.422 54.1028 173.339 54.1375 173.252 54.1375Z" fill="#E6E6E6"/>
<path d="M173.252 66.5565H111.963C111.876 66.5565 111.792 66.5218 111.731 66.4601C111.669 66.3983 111.635 66.3146 111.635 66.2272C111.635 66.1399 111.669 66.0562 111.731 65.9944C111.792 65.9326 111.876 65.8979 111.963 65.8979H173.252C173.339 65.8979 173.422 65.9326 173.484 65.9944C173.546 66.0562 173.58 66.1399 173.58 66.2272C173.58 66.3146 173.546 66.3983 173.484 66.4601C173.422 66.5218 173.339 66.5565 173.252 66.5565Z" fill="#E6E6E6"/>
<path d="M173.252 78.9755H111.963C111.876 78.9755 111.792 78.9408 111.731 78.879C111.669 78.8173 111.635 78.7335 111.635 78.6462C111.635 78.5589 111.669 78.4751 111.731 78.4133C111.792 78.3516 111.876 78.3169 111.963 78.3169H173.252C173.339 78.3169 173.422 78.3516 173.484 78.4133C173.546 78.4751 173.58 78.5589 173.58 78.6462C173.58 78.7335 173.546 78.8173 173.484 78.879C173.422 78.9408 173.339 78.9755 173.252 78.9755Z" fill="#E6E6E6"/>
<path d="M173.252 91.3945H111.963C111.876 91.3945 111.792 91.3598 111.731 91.2981C111.669 91.2363 111.635 91.1526 111.635 91.0653C111.635 90.9779 111.669 90.8942 111.731 90.8324C111.792 90.7707 111.876 90.736 111.963 90.736H173.252C173.339 90.736 173.422 90.7707 173.484 90.8324C173.546 90.8942 173.58 90.9779 173.58 91.0653C173.58 91.1526 173.546 91.2363 173.484 91.2981C173.422 91.3598 173.339 91.3945 173.252 91.3945Z" fill="#E6E6E6"/>
<path d="M173.252 103.813H111.963C111.876 103.813 111.792 103.779 111.731 103.717C111.669 103.655 111.635 103.571 111.635 103.484C111.635 103.397 111.669 103.313 111.731 103.251C111.792 103.189 111.876 103.155 111.963 103.155H173.252C173.339 103.155 173.422 103.189 173.484 103.251C173.546 103.313 173.58 103.397 173.58 103.484C173.58 103.571 173.546 103.655 173.484 103.717C173.422 103.779 173.339 103.813 173.252 103.813Z" fill="#E6E6E6"/>
<path d="M173.252 116.233H111.963C111.876 116.233 111.792 116.198 111.731 116.136C111.669 116.074 111.635 115.991 111.635 115.903C111.635 115.816 111.669 115.732 111.731 115.67C111.792 115.609 111.876 115.574 111.963 115.574H173.252C173.339 115.574 173.422 115.609 173.484 115.67C173.546 115.732 173.58 115.816 173.58 115.903C173.58 115.991 173.546 116.074 173.484 116.136C173.422 116.198 173.339 116.233 173.252 116.233Z" fill="#E6E6E6"/>
<path d="M173.252 128.651H111.963C111.876 128.651 111.792 128.617 111.731 128.555C111.669 128.493 111.635 128.409 111.635 128.322C111.635 128.235 111.669 128.151 111.731 128.089C111.792 128.027 111.876 127.993 111.963 127.993H173.252C173.339 127.993 173.422 128.027 173.484 128.089C173.546 128.151 173.58 128.235 173.58 128.322C173.58 128.409 173.546 128.493 173.484 128.555C173.422 128.617 173.339 128.651 173.252 128.651Z" fill="#E6E6E6"/>
<path d="M173.252 141.071H111.963C111.876 141.071 111.792 141.036 111.731 140.974C111.669 140.912 111.635 140.829 111.635 140.741C111.635 140.654 111.669 140.57 111.731 140.508C111.792 140.447 111.876 140.412 111.963 140.412H173.252C173.339 140.412 173.422 140.447 173.484 140.508C173.546 140.57 173.58 140.654 173.58 140.741C173.58 140.829 173.546 140.912 173.484 140.974C173.422 141.036 173.339 141.071 173.252 141.071Z" fill="#E6E6E6"/>
<path d="M164.166 38.8193H121.897C121.732 38.8195 121.569 38.7873 121.417 38.7243C121.265 38.6613 121.127 38.5689 121.01 38.4523C120.894 38.3357 120.802 38.1973 120.739 38.0448C120.676 37.8924 120.643 37.729 120.643 37.564C120.643 37.399 120.676 37.2356 120.739 37.0832C120.802 36.9307 120.894 36.7923 121.01 36.6757C121.127 36.5591 121.265 36.4667 121.417 36.4037C121.569 36.3407 121.732 36.3085 121.897 36.3087H164.166C164.497 36.3093 164.815 36.4417 165.05 36.6771C165.284 36.9125 165.416 37.2314 165.416 37.564C165.416 37.8966 165.284 38.2155 165.05 38.4509C164.815 38.6862 164.497 38.8187 164.166 38.8193Z" fill="#CCCCCC"/>
<path d="M164.166 51.2383H121.897C121.565 51.2383 121.247 51.1061 121.012 50.8707C120.777 50.6353 120.645 50.316 120.645 49.9831C120.645 49.6501 120.777 49.3309 121.012 49.0954C121.247 48.86 121.565 48.7278 121.897 48.7278H164.166C164.498 48.7278 164.816 48.86 165.051 49.0954C165.286 49.3309 165.418 49.6501 165.418 49.9831C165.418 50.316 165.286 50.6353 165.051 50.8707C164.816 51.1061 164.498 51.2383 164.166 51.2383Z" fill="#CCCCCC"/>
<path d="M164.166 63.6573H121.897C121.732 63.6575 121.569 63.6253 121.417 63.5623C121.265 63.4993 121.127 63.4069 121.01 63.2903C120.894 63.1737 120.802 63.0353 120.739 62.8828C120.676 62.7304 120.643 62.567 120.643 62.402C120.643 62.237 120.676 62.0736 120.739 61.9212C120.802 61.7687 120.894 61.6303 121.01 61.5137C121.127 61.3971 121.265 61.3047 121.417 61.2417C121.569 61.1787 121.732 61.1465 121.897 61.1467H164.166C164.497 61.1473 164.815 61.2798 165.05 61.5151C165.284 61.7505 165.416 62.0694 165.416 62.402C165.416 62.7346 165.284 63.0536 165.05 63.2889C164.815 63.5243 164.497 63.6567 164.166 63.6573Z" fill="#CCCCCC"/>
<path d="M164.166 76.0762H121.897C121.565 76.0762 121.247 75.944 121.012 75.7086C120.777 75.4732 120.645 75.1539 120.645 74.821C120.645 74.488 120.777 74.1687 121.012 73.9333C121.247 73.6979 121.565 73.5657 121.897 73.5657H164.166C164.498 73.5657 164.816 73.6979 165.051 73.9333C165.286 74.1687 165.418 74.488 165.418 74.821C165.418 75.1539 165.286 75.4732 165.051 75.7086C164.816 75.944 164.498 76.0762 164.166 76.0762Z" fill="#CCCCCC"/>
<path d="M164.166 88.4953H121.897C121.732 88.4956 121.569 88.4633 121.417 88.4003C121.265 88.3374 121.127 88.2449 121.01 88.1284C120.894 88.0118 120.802 87.8733 120.739 87.7209C120.676 87.5684 120.643 87.405 120.643 87.24C120.643 87.075 120.676 86.9116 120.739 86.7592C120.802 86.6067 120.894 86.4683 121.01 86.3517C121.127 86.2351 121.265 86.1427 121.417 86.0797C121.569 86.0167 121.732 85.9845 121.897 85.9847H164.166C164.497 85.9853 164.815 86.1178 165.05 86.3531C165.284 86.5885 165.416 86.9074 165.416 87.24C165.416 87.5726 165.284 87.8916 165.05 88.1269C164.815 88.3623 164.497 88.4948 164.166 88.4953Z" fill="#CCCCCC"/>
<path d="M164.166 100.914H121.897C121.732 100.915 121.569 100.882 121.417 100.819C121.265 100.756 121.127 100.664 121.01 100.547C120.894 100.431 120.802 100.292 120.739 100.14C120.676 99.9874 120.643 99.824 120.643 99.659C120.643 99.4939 120.676 99.3305 120.739 99.1781C120.802 99.0257 120.894 98.8872 121.01 98.7706C121.127 98.654 121.265 98.5616 121.417 98.4987C121.569 98.4357 121.732 98.4034 121.897 98.4037H164.166C164.497 98.4042 164.815 98.5367 165.05 98.7721C165.284 99.0074 165.416 99.3264 165.416 99.659C165.416 99.9915 165.284 100.311 165.05 100.546C164.815 100.781 164.497 100.914 164.166 100.914Z" fill="#CCCCCC"/>
<path d="M164.166 113.333H121.897C121.565 113.333 121.247 113.201 121.012 112.966C120.777 112.73 120.645 112.411 120.645 112.078C120.645 111.745 120.777 111.426 121.012 111.19C121.247 110.955 121.565 110.823 121.897 110.823H164.166C164.498 110.823 164.816 110.955 165.051 111.19C165.286 111.426 165.418 111.745 165.418 112.078C165.418 112.411 165.286 112.73 165.051 112.966C164.816 113.201 164.498 113.333 164.166 113.333Z" fill="#CCCCCC"/>
<path d="M164.166 125.752H121.897C121.732 125.753 121.569 125.72 121.417 125.657C121.265 125.594 121.127 125.502 121.01 125.385C120.894 125.269 120.802 125.13 120.739 124.978C120.676 124.825 120.643 124.662 120.643 124.497C120.643 124.332 120.676 124.169 120.739 124.016C120.802 123.864 120.894 123.725 121.01 123.609C121.127 123.492 121.265 123.4 121.417 123.337C121.569 123.274 121.732 123.241 121.897 123.242H164.166C164.497 123.242 164.815 123.375 165.05 123.61C165.284 123.845 165.416 124.164 165.416 124.497C165.416 124.83 165.284 125.149 165.05 125.384C164.815 125.619 164.497 125.752 164.166 125.752Z" fill="#CCCCCC"/>
<path d="M164.166 138.171H121.897C121.733 138.171 121.57 138.139 121.418 138.076C121.266 138.013 121.128 137.92 121.012 137.804C120.896 137.687 120.803 137.549 120.74 137.396C120.678 137.244 120.645 137.081 120.645 136.916C120.645 136.751 120.678 136.588 120.74 136.436C120.803 136.283 120.896 136.145 121.012 136.028C121.128 135.912 121.266 135.819 121.418 135.756C121.57 135.693 121.733 135.661 121.897 135.661H164.166C164.498 135.661 164.816 135.793 165.051 136.028C165.286 136.264 165.418 136.583 165.418 136.916C165.418 137.249 165.286 137.568 165.051 137.804C164.816 138.039 164.498 138.171 164.166 138.171Z" fill="#CCCCCC"/>
<path d="M125.982 29.4244H115.043C114.956 29.4244 114.873 29.4591 114.811 29.5209C114.749 29.5826 114.715 29.6664 114.715 29.7537C114.715 29.8411 114.749 29.9248 114.811 29.9866C114.873 30.0483 114.956 30.083 115.043 30.083H120.184V40.8303C120.184 40.9177 120.219 41.0014 120.28 41.0632C120.342 41.1249 120.425 41.1596 120.513 41.1596C120.6 41.1596 120.683 41.1249 120.745 41.0632C120.806 41.0014 120.841 40.9177 120.841 40.8303V35.2375C120.841 33.8705 121.383 32.5594 122.347 31.5927C123.311 30.6261 124.618 30.083 125.982 30.083C126.069 30.083 126.153 30.0483 126.214 29.9866C126.276 29.9248 126.31 29.8411 126.31 29.7537C126.31 29.6664 126.276 29.5826 126.214 29.5209C126.153 29.4591 126.069 29.4244 125.982 29.4244Z" fill="#3F3D56"/>
<path d="M165.698 140.788C165.517 140.788 163.214 140.641 163.214 140.459L165.37 129.492C165.37 129.404 165.404 129.32 165.466 129.259C165.527 129.197 165.611 129.162 165.698 129.162C165.785 129.162 165.869 129.197 165.93 129.259C165.992 129.32 166.026 129.404 166.026 129.492V140.459C166.026 140.546 165.992 140.63 165.93 140.692C165.869 140.754 165.785 140.788 165.698 140.788Z" fill="#3F3D56"/>
<path d="M190.522 26.4144C190.522 24.3974 189.723 22.463 188.3 21.0367C186.878 19.6105 184.948 18.8092 182.937 18.8092H98.0426C101.475 18.8092 142.719 21.241 168.994 24.3105C173.375 24.8217 177.485 26.7003 180.742 29.681C184 32.6616 186.241 36.5934 187.149 40.9207C194.874 77.7721 193.463 115.302 183.625 153.458C183.625 155.475 182.826 157.409 181.403 158.836C179.981 160.262 178.051 161.063 176.04 161.063H182.937C184.948 161.063 186.878 160.262 188.3 158.836C189.723 157.409 190.522 155.475 190.522 153.458C201.654 110.283 201.997 67.91 190.522 26.4144Z" fill="#E6E6E6"/>
<path d="M187.32 157.31L186.684 157.146C197.915 113.592 197.918 70.9184 186.696 30.3097C185.528 28.1864 183.847 26.3906 181.808 25.0867C179.769 23.7828 177.436 23.0124 175.023 22.846L141.371 20.4549L141.418 19.798L175.07 22.189C177.599 22.3636 180.043 23.1727 182.178 24.5421C184.314 25.9114 186.072 27.7971 187.29 30.0256L187.319 30.0965C192.993 50.6052 195.849 71.7943 195.809 93.0774C195.766 114.02 192.91 135.631 187.32 157.31Z" fill="white"/>
</g>
<defs>
<clipPath id="clip0_35_218">
<rect width="199" height="186" fill="white"/>
</clipPath>
</defs>
</svg>
