<svg width="141" height="106" viewBox="0 0 141 106" fill="none" xmlns="http://www.w3.org/2000/svg">
<g clip-path="url(#clip0_4_301)">
<path d="M39.2522 80.0545L31.2948 80.921L27.4868 78.3215L25.2831 80.921L26.3419 86.405L27.5513 90.7347L34.8959 86.9997L40.8109 86.4642L39.2522 80.0545Z" fill="#A0616A"/>
<path d="M79.5713 70.8704L60.3645 70.5233L37.0029 80.3989L40.1176 87.1585L61.2298 81.2654L93.9328 90.6217L89.4341 68.4459L79.5713 70.8704Z" fill="#2F2E41"/>
<path d="M26.8875 80.6841L30.7063 80.3855L25.8501 70.1143C25.8501 70.1143 23.6008 69.3177 23.2541 71.7961C22.9074 74.2717 25.8609 91.0441 26.7262 91.0441C27.5916 91.0441 30.494 89.3489 30.494 89.3489L26.1968 81.2035L26.8902 80.6841H26.8875Z" fill="#2F2E41"/>
<path d="M122.64 77.8722C122.255 77.9126 121.836 77.9745 121.39 78.066C119.498 78.4508 119.46 79.737 119.477 80.0303L119.463 80.0223C119.272 80.3263 119.154 80.6358 119.082 80.9291L118.996 76.9896C119.052 76.8739 119.103 76.7393 119.146 76.6048C119.288 77.0407 119.52 77.4524 119.718 77.4255C119.979 77.3905 120.092 76.6236 120.044 76.0801C120.374 76.5052 120.93 76.9627 121.14 76.8228C121.307 76.7097 121.207 76.2469 121.025 75.8271C121.406 76.0585 121.828 76.2092 121.96 76.0612C122.14 75.8621 121.71 75.1813 121.315 74.8019C121.844 74.8503 122.519 74.7669 122.562 74.5247C122.599 74.3256 122.196 74.0753 121.769 73.9139C122.199 73.8009 122.602 73.6017 122.589 73.4053C122.572 73.1712 121.976 73.0151 121.46 72.9936C121.85 72.6895 122.207 72.2671 122.097 72.076C121.997 71.9011 121.53 71.9684 121.097 72.1217C121.352 71.7558 121.532 71.3441 121.395 71.2041C121.226 71.0292 120.621 71.3306 120.208 71.667C120.288 71.1449 120.248 70.4857 120.014 70.4265C119.818 70.3753 119.541 70.7601 119.35 71.1772C119.267 70.7386 119.095 70.3242 118.899 70.3242C118.619 70.3242 118.394 71.1692 118.394 71.7181V71.8069C118.367 71.7746 118.334 71.7396 118.297 71.7047C117.902 71.3225 117.141 70.8974 116.945 71.0965C116.808 71.2364 116.988 71.6481 117.243 72.0141C116.811 71.8607 116.343 71.7908 116.244 71.9684C116.109 72.2052 116.687 72.7918 117.155 73.077C117.128 73.0743 117.096 73.0716 117.066 73.0689C116.518 73.0313 115.66 73.2008 115.642 73.4807C115.628 73.6771 116.031 73.8762 116.461 73.9892C116.031 74.1507 115.631 74.4009 115.669 74.6001C115.712 74.8423 116.386 74.9257 116.915 74.8772C116.52 75.2567 116.09 75.9375 116.271 76.1366C116.402 76.2819 116.824 76.1312 117.206 75.9025C117.023 76.3223 116.924 76.7851 117.09 76.8981C117.311 77.0461 117.921 76.5295 118.24 76.0855C118.208 76.629 118.337 77.3771 118.595 77.4067C118.703 77.4201 118.818 77.3044 118.92 77.1268L118.627 81.3623C118.56 81.8548 118.996 82.1777 119.036 82.3795L119.098 85.248C119.028 85.0435 118.931 84.8336 118.802 84.6264L118.789 84.6345C118.805 84.3385 118.767 83.0549 116.875 82.6701C116.429 82.5786 116.01 82.5167 115.626 82.4764C115.171 82.4279 114.994 83.0495 115.405 83.2513C115.999 83.542 116.558 83.9079 116.848 84.3412C117.593 85.4498 118.619 84.8094 118.767 84.7098C118.931 84.9816 119.039 85.2561 119.106 85.5171L119.138 87.0401C119.13 87.0751 119.125 87.0967 119.125 87.0967L119.141 87.102L119.221 90.7886L119.974 90.7832L119.705 87.0159C119.751 86.8114 119.89 86.1198 119.705 85.4014L119.436 82.4414L119.087 81.2789C119.138 80.9183 119.256 80.5147 119.495 80.1137C119.641 80.2133 120.67 80.8537 121.414 79.7451C121.704 79.3119 122.263 78.9459 122.857 78.6553C123.266 78.4534 123.091 77.8319 122.637 77.8803V77.8722H122.64ZM119.211 86.5934L119.197 85.9476C119.227 86.1925 119.224 86.4105 119.211 86.5934Z" fill="#F2F2F2"/>
<path d="M0 90.7132C0 90.8908 0.142432 91.0334 0.319801 91.0334H140.68C140.858 91.0334 141 90.8908 141 90.7132C141 90.5356 140.858 90.3929 140.68 90.3929H0.319801C0.142432 90.3929 0 90.5356 0 90.7132Z" fill="#3F3D56"/>
<path d="M93.132 47.7663L95.0373 41.3566L100.573 41.1816L102.823 49.1521L93.132 47.7663Z" fill="#A0616A"/>
<path opacity="0.1" d="M93.132 47.7663L95.0373 41.3566L100.573 41.1816L102.823 49.1521L93.132 47.7663Z" fill="black"/>
<path d="M101.632 46.8729L92.6348 46.5258L89.8453 52.2708L85.5401 77.7134L108.122 82.8234C108.122 82.8234 109.506 54.4074 106.392 50.4222C103.277 46.437 101.632 46.8702 101.632 46.8702V46.8729Z" fill="#E6E6E6"/>
<path d="M75.2795 26.9495C74.9033 24.9448 73.5677 23.5105 72.2911 23.75C71.0146 23.9895 70.2863 25.8085 70.6626 27.816C70.8023 28.6205 71.1302 29.3767 71.622 30.0279L73.3177 38.5069L76.6636 37.8261L75.1801 29.3605C75.4032 28.5748 75.4354 27.7487 75.2742 26.9495H75.2795Z" fill="#A0616A"/>
<path d="M100.286 49.1818L81.9094 45.5571L76.7442 30.0037L70.9582 31.376L76.763 54.351L97.5635 57.0903L100.286 49.1818Z" fill="#E6E6E6"/>
<path d="M72.2992 2.03703C72.2804 2.05587 72.2643 2.07201 72.2455 2.09085C69.464 -0.675406 64.9814 -0.699625 62.1677 2.03703C59.3459 4.78175 59.2492 9.28903 61.9527 12.1522L62.0199 12.2221L71.9767 22.4879L82.299 12.4508L82.2695 12.4212C82.2856 12.4051 82.3044 12.389 82.3232 12.3728C85.1746 9.60117 85.2391 5.04008 82.471 2.18772C79.703 -0.667334 75.1479 -0.731916 72.2992 2.03972V2.03703Z" fill="#E86161"/>
<path d="M74.7609 52.9489C74.7286 52.9812 74.6964 53.0162 74.6641 53.0485C69.5393 47.9573 61.2862 47.9116 56.1049 52.9489C50.9075 58.0052 50.7301 66.3066 55.7099 71.5781L55.8335 71.71L74.1723 90.6163L93.1803 72.1297L93.1266 72.0759C93.1588 72.0463 93.1911 72.0167 93.2233 71.9871C98.4718 66.8825 98.5955 58.4841 93.4975 53.2261C88.3995 47.9708 80.0121 47.847 74.7609 52.9516H74.7636L74.7609 52.9489Z" fill="#E86161"/>
<path d="M102.799 74.0215C102.799 74.0215 109.59 79.6859 107.069 83.1221C104.551 86.5584 95.9833 92.7099 92.1134 90.802C88.2436 88.8941 80.2109 75.1059 80.2109 75.1059L78.1094 89.2305L72.611 88.7435C72.611 88.7435 68.6175 68.7931 72.2992 65.7335C75.9836 62.6739 92.753 68.0827 92.753 68.0827L102.796 74.0242L102.799 74.0215Z" fill="#2F2E41"/>
<path d="M73.9842 86.8679L72.4094 91.7681L69.1281 96.3722L71.6435 100.142L79.6385 94.8707L79.6116 92.1582L78.3566 90.4657L77.4698 87.2204L73.9842 86.8679Z" fill="#A0616A"/>
<path d="M71.4688 98.2854L69.4613 95.0186L62.5493 104.03C62.5493 104.03 62.8691 106.398 65.2287 105.575C67.5882 104.752 82.2157 97.244 81.8207 96.4717C81.4256 95.6994 79.8051 91.55 79.8051 91.55L72.2482 98.6621L71.4715 98.2827L71.4688 98.2854Z" fill="#2F2E41"/>
<path d="M75.7122 73.9759C73.6832 74.1777 72.1434 75.3886 72.2723 76.6802C72.4013 77.9719 74.1482 78.8572 76.1771 78.6553C76.9887 78.5854 77.7708 78.3217 78.4614 77.8884L87.0423 76.9278L86.6526 73.5319L78.1013 74.2826C77.3408 73.992 76.5211 73.8871 75.7122 73.9786V73.9759Z" fill="#A0616A"/>
<path d="M99.9902 50.947L94.7982 68.9653L78.878 72.7757L79.7433 78.6688L103.105 74.8557L107.622 54.3429L99.9902 50.947Z" fill="#E6E6E6"/>
<path d="M97.1013 43.2752C101.162 43.2752 104.454 39.979 104.454 35.9129C104.454 31.8468 101.162 28.5505 97.1013 28.5505C93.0405 28.5505 89.7485 31.8468 89.7485 35.9129C89.7485 39.979 93.0405 43.2752 97.1013 43.2752Z" fill="#A0616A"/>
<path d="M97.6871 26.013C97.4748 26.1368 97.1899 25.9484 97.1201 25.7116C97.0529 25.4748 97.1308 25.2219 97.2114 24.9904C97.3431 24.5976 97.4748 24.2047 97.6092 23.8145C97.8913 22.9803 98.1897 22.1166 98.7997 21.4815C99.7188 20.5235 101.181 20.2787 102.498 20.4563C104.188 20.6823 105.854 21.5999 106.642 23.1149C107.426 24.6299 107.093 26.7449 105.674 27.6894C107.698 30.0117 108.402 32.6003 108.292 35.6787C108.181 38.7598 104.828 41.5933 102.643 43.7622C102.154 43.4662 101.71 42.0777 101.979 41.5718C102.248 41.0686 101.863 40.482 102.194 40.0192C102.524 39.5563 102.804 40.2936 102.468 39.8335C102.256 39.5429 103.083 38.8701 102.769 38.6979C101.245 37.853 100.737 35.9505 99.7779 34.492C98.6223 32.7349 96.6444 31.5428 94.5536 31.3464C93.4007 31.2387 92.1833 31.4352 91.24 32.1052C90.2941 32.7752 89.684 33.9727 89.9017 35.1109C89.3347 34.5351 89.0525 33.6875 89.1573 32.8856C89.2648 32.0837 89.7566 31.341 90.4553 30.932C90.0307 29.5273 90.3935 27.9101 91.3798 26.823C92.366 25.7358 96.3622 25.9215 97.8 26.2067L97.6898 26.0157L97.6871 26.013Z" fill="#2F2E41"/>
<path d="M97.9129 31.3867C99.8182 31.5939 101.194 33.2461 102.355 34.7719C103.024 35.6518 103.726 36.6232 103.71 37.7292C103.693 38.8459 102.946 39.8066 102.589 40.8668C102.006 42.5997 102.573 44.6583 103.962 45.845C102.592 46.106 101.108 45.0754 100.872 43.6976C100.595 42.0938 101.81 40.5466 101.667 38.924C101.541 37.4951 100.418 36.3972 99.4608 35.3289C98.5041 34.2606 97.6092 32.8452 98.0472 31.4809L97.9129 31.3894V31.3867Z" fill="#2F2E41"/>
</g>
<defs>
<clipPath id="clip0_4_301">
<rect width="141" height="105.75" fill="white"/>
</clipPath>
</defs>
</svg>
