<svg width="233" height="181" viewBox="0 0 233 181" fill="none" xmlns="http://www.w3.org/2000/svg">
<g clip-path="url(#clip0_40_456)">
<path d="M122.481 6.45447H63.1541V71.4772H122.481V6.45447Z" fill="#F2F2F2"/>
<path d="M128.461 0.239014H69.1345V65.2618H128.461V0.239014Z" stroke="#3F3D56" stroke-width="2" stroke-miterlimit="10"/>
<path d="M75.4431 57.9263H72.2444V61.1228H75.4431V57.9263Z" fill="#2B2245"/>
<path d="M80.0635 57.9263H76.8647V61.1228H80.0635V57.9263Z" fill="#3F3D56"/>
<path d="M84.6838 57.9263H81.4851V61.1228H84.6838V57.9263Z" fill="#575A89"/>
<path d="M120.567 59.3146H108.127V59.8185H120.567V59.3146Z" fill="#3F3D56"/>
<path d="M120.567 60.8264H108.127V61.3304H120.567V60.8264Z" fill="#3F3D56"/>
<path d="M120.567 62.3383H108.127V62.8422H120.567V62.3383Z" fill="#3F3D56"/>
<path d="M98.7979 11.7136V16.9728C101.921 16.9728 104.973 17.8982 107.569 19.6318C110.166 21.3655 112.19 23.8296 113.385 26.7126C114.58 29.5956 114.892 32.7679 114.283 35.8285C113.674 38.889 112.17 41.7003 109.962 43.9068L113.683 47.6256C116.627 44.6836 118.632 40.9352 119.445 36.8545C120.257 32.7737 119.84 28.5439 118.247 24.7C116.653 20.856 113.955 17.5705 110.493 15.259C107.031 12.9474 102.961 11.7136 98.7979 11.7136Z" fill="#3F3D56"/>
<path d="M113.683 47.6257L109.962 43.9069C107.263 46.6049 103.676 48.2338 99.8671 48.4919C96.0581 48.75 92.2845 47.6197 89.2455 45.3105L86.0601 49.4989C90.1128 52.577 95.1444 54.0833 100.223 53.7389C105.302 53.3945 110.084 51.2227 113.683 47.6257Z" fill="#575A89"/>
<path d="M83.0092 32.7504C83.0092 28.5659 84.6726 24.5528 87.6335 21.594C90.5944 18.6351 94.6103 16.9728 98.7977 16.9728V11.7136C94.3908 11.7136 90.0951 13.0956 86.5159 15.6648C82.9368 18.2341 80.2548 21.861 78.8479 26.0344C77.441 30.2077 77.3803 34.7171 78.6742 38.9268C79.9681 43.1365 82.5514 46.8343 86.06 49.4989L89.2454 45.3105C87.3059 43.8404 85.7335 41.9413 84.6515 39.7622C83.5696 37.583 83.0074 35.183 83.0092 32.7504Z" fill="#2B2245"/>
<path d="M138.298 137.91C136.724 137.91 135.165 137.601 133.71 136.998C132.255 136.396 130.933 135.514 129.82 134.401C128.707 133.288 127.823 131.968 127.221 130.514C126.618 129.06 126.308 127.502 126.308 125.929V111.973C126.308 84.0495 148.96 61.4131 176.903 61.4131C204.846 61.4131 227.498 84.0495 227.498 111.973V122.944C227.498 124.91 227.111 126.856 226.358 128.672C225.605 130.487 224.502 132.137 223.111 133.527C221.721 134.917 220.07 136.019 218.253 136.771C216.436 137.523 214.488 137.91 212.521 137.91" fill="#F2F2F2"/>
<path d="M217.545 152.971V152.493C221.452 152.488 225.198 150.935 227.961 148.174C230.724 145.413 232.278 141.67 232.282 137.766V109.104C232.282 81.3574 209.693 58.7835 181.926 58.7835C154.16 58.7835 131.571 81.3574 131.571 109.104V140.75C131.574 143.863 132.813 146.848 135.016 149.05C137.219 151.251 140.206 152.489 143.322 152.493V152.971C140.079 152.967 136.971 151.678 134.678 149.387C132.386 147.096 131.096 143.99 131.092 140.75V109.104C131.092 81.0938 153.896 58.3054 181.926 58.3054C209.957 58.3054 232.761 81.0938 232.761 109.104V137.766C232.756 141.797 231.151 145.662 228.299 148.512C225.446 151.363 221.579 152.966 217.545 152.971Z" fill="#3F3D56"/>
<path d="M233 134.564H130.853V176.637H233V134.564Z" fill="#3F3D56"/>
<path d="M197.536 91.3174L187.787 98.243L194.718 107.985L204.466 101.059L197.536 91.3174Z" fill="#2B2245"/>
<path d="M198.32 88.7069L188.572 95.6326L195.502 105.374L205.251 98.4487L198.32 88.7069Z" stroke="#3F3D56" stroke-width="2" stroke-miterlimit="10"/>
<path d="M179.415 86.7529C182.189 86.7529 184.438 84.5053 184.438 81.7328C184.438 78.9602 182.189 76.7126 179.415 76.7126C176.64 76.7126 174.391 78.9602 174.391 81.7328C174.391 84.5053 176.64 86.7529 179.415 86.7529Z" fill="#2B2245"/>
<path d="M177.979 86.0356C180.754 86.0356 183.003 83.788 183.003 81.0155C183.003 78.243 180.754 75.9954 177.979 75.9954C175.205 75.9954 172.956 78.243 172.956 81.0155C172.956 83.788 175.205 86.0356 177.979 86.0356Z" stroke="#3F3D56" stroke-width="2" stroke-miterlimit="10"/>
<path d="M164.567 101.794L170.58 105.252L176.592 108.711L170.589 112.185L164.586 115.659L164.576 108.727L164.567 101.794Z" fill="#2B2245"/>
<path d="M163.601 104.42L169.613 107.878L175.626 111.337L169.622 114.811L163.619 118.285L163.61 111.352L163.601 104.42Z" stroke="#3F3D56" stroke-width="2" stroke-miterlimit="10"/>
<path d="M140.048 90.5355C140.959 87.2809 142.643 84.2943 144.957 81.8294C147.271 79.3644 150.146 77.494 153.338 76.3771C154.206 76.0787 153.833 74.6927 152.956 74.994C149.527 76.1821 146.437 78.1812 143.948 80.821C141.459 83.4608 139.646 86.6628 138.663 90.1542C138.417 91.0453 139.802 91.4255 140.048 90.5355Z" fill="white"/>
<path d="M137.325 98.3687C138.249 98.3687 138.25 96.9343 137.325 96.9343C136.402 96.9343 136.4 98.3687 137.325 98.3687Z" fill="white"/>
<path d="M77.711 83.5567L55.3655 76.4712L46.6833 103.814L69.0288 110.9L77.711 83.5567Z" fill="#F2F2F2"/>
<path d="M67.416 85.5326L58.6421 82.7505L58.4881 83.2355L67.262 86.0177L67.416 85.5326Z" fill="#3F3D56"/>
<path d="M71.1266 87.6949L58.3577 83.646L58.2037 84.131L70.9726 88.1799L71.1266 87.6949Z" fill="#3F3D56"/>
<path d="M66.4446 88.5921L57.6707 85.8099L57.5166 86.295L66.2906 89.0771L66.4446 88.5921Z" fill="#3F3D56"/>
<path d="M65.3072 92.1739L56.5332 89.3917L56.3792 89.8768L65.1531 92.6589L65.3072 92.1739Z" fill="#3F3D56"/>
<path d="M70.1551 90.7543L57.3862 86.7054L57.2322 87.1905L70.0011 91.2394L70.1551 90.7543Z" fill="#3F3D56"/>
<path d="M69.8707 91.6497L57.1018 87.6008L56.9478 88.0859L69.7167 92.1347L69.8707 91.6497Z" fill="#3F3D56"/>
<path d="M69.5865 92.5452L56.8176 88.4963L56.6636 88.9814L69.4325 93.0303L69.5865 92.5452Z" fill="#3F3D56"/>
<path d="M60.4385 93.0118L55.8462 91.5557L55.4434 92.8242L60.0357 94.2804L60.4385 93.0118Z" fill="#2B2245"/>
<path d="M31.3378 181C48.6452 181 62.6756 179.181 62.6756 176.936C62.6756 174.692 48.6452 172.872 31.3378 172.872C14.0304 172.872 0 174.692 0 176.936C0 179.181 14.0304 181 31.3378 181Z" fill="#3F3D56"/>
<path d="M16.5356 64.4314L15.4946 66.902L16.6657 82.8958C16.6657 82.8958 16.0151 83.8061 16.6657 84.4562C17.3163 85.1064 17.1862 85.3664 17.1862 85.3664C17.1862 85.3664 16.1452 85.3664 16.6657 86.1466C17.1862 86.9268 17.1862 87.3169 17.1862 87.3169L16.926 88.0971C16.926 88.0971 17.4464 88.7472 17.4464 89.2674C17.4464 89.7875 20.8296 105.781 20.8296 105.781L24.0826 99.4098L22.2609 74.0537L16.5356 64.4314Z" fill="#2B2245"/>
<path d="M49.939 105.103C49.939 105.103 57.0436 104.816 59.3088 107.321C61.5739 109.825 50.4094 108.013 49.7779 107.308C49.1464 106.602 49.939 105.103 49.939 105.103Z" fill="#FFB9B9"/>
<path d="M14.8441 168.196L13.4127 172.877C13.4127 172.877 11.3308 177.429 14.1935 178.079C17.0561 178.729 19.7887 176.258 19.7887 176.258V173.137L20.8297 168.196H14.8441Z" fill="#2F2E41"/>
<path d="M38.2659 168.196C38.2659 168.196 37.6153 177.038 39.0467 177.559C40.478 178.079 45.5527 178.209 45.6829 177.559C45.813 176.908 47.3744 176.258 46.2033 175.348C45.0322 174.438 44.2515 169.107 44.2515 169.107L38.2659 168.196Z" fill="#2F2E41"/>
<path d="M25.1236 84.4562V88.3571C25.1236 88.3571 20.8296 97.3292 19.2682 111.503C17.7067 125.676 12.3718 168.846 13.673 169.627C14.9742 170.407 29.0273 170.927 29.4176 169.887C29.808 168.846 30.1984 138.419 30.1984 138.419L35.0128 116.964C35.0128 116.964 35.9237 124.636 36.7044 125.936C37.4852 127.236 35.4032 169.497 36.7044 170.147C38.0056 170.797 55.572 171.967 55.3118 169.887C55.0515 167.806 49.1961 111.373 49.1961 111.373C49.1961 111.373 46.2033 84.7162 45.2924 84.4562C44.3816 84.1961 36.0538 83.936 34.7526 84.1961C33.4514 84.4562 25.1236 84.4562 25.1236 84.4562Z" fill="#2F2E41"/>
<path d="M35.0129 52.2084C39.1091 52.2084 42.4298 48.8901 42.4298 44.7967C42.4298 40.7033 39.1091 37.3849 35.0129 37.3849C30.9166 37.3849 27.5959 40.7033 27.5959 44.7967C27.5959 48.8901 30.9166 52.2084 35.0129 52.2084Z" fill="#FFB9B9"/>
<path d="M36.5744 51.0382C36.5744 51.0382 32.8009 56.8896 33.7117 58.45C34.6226 60.0104 24.0828 56.8896 24.0828 56.8896C24.0828 56.8896 30.4587 49.0877 30.3286 48.1775C30.1985 47.2673 36.5744 51.0382 36.5744 51.0382Z" fill="#FFB9B9"/>
<path d="M44.3815 59.7503C44.3815 59.7503 37.4851 57.5397 36.5743 56.6295C35.9899 56.0331 35.4669 55.3797 35.0128 54.6791C35.0128 54.6791 26.685 53.5088 26.4248 53.5088C26.1646 53.5088 24.2127 55.8493 23.6923 56.3695C23.1718 56.8896 16.5356 60.4004 16.5356 61.3107C16.5356 62.2209 15.4946 66.902 15.4946 66.902C15.4946 66.902 17.8368 71.7132 19.2681 72.7534C20.6995 73.7937 21.0898 73.5336 21.22 75.224C21.3501 76.9144 23.1718 79.6451 23.1718 79.6451C23.1718 79.6451 24.3429 82.6358 24.0826 83.546C23.8224 84.4562 22.6513 85.2364 25.3838 84.9763C28.1164 84.7163 41.649 85.4965 41.649 84.0661C41.649 82.6358 39.0466 68.9825 39.0466 68.9825L44.3815 59.7503Z" fill="#2B2245"/>
<path d="M41.9093 60.0103L44.3816 59.7502C44.3816 59.7502 45.2924 60.2704 45.4225 65.3416C45.5527 70.4128 45.5527 82.6357 46.4635 83.676C47.3744 84.7163 51.1479 100.84 51.1479 100.84C51.1479 100.84 52.1888 101.1 52.1888 102.01C52.1888 102.921 53.3599 103.701 52.8394 104.741C52.319 105.781 53.3599 105.521 52.7093 106.171C52.0587 106.822 48.9358 108.122 48.8057 107.342C48.6756 106.561 49.1961 106.431 48.6756 106.171C48.1551 105.911 48.1551 105.781 48.025 104.871C47.8948 103.961 46.7237 103.051 46.8539 102.661C46.984 102.27 41.1285 90.9577 41.1285 90.5676C41.1285 90.1775 40.7382 88.7472 40.2177 88.4871C39.6972 88.2271 38.9165 87.967 39.3068 87.3169C39.6972 86.6667 38.2659 67.162 38.2659 67.162L41.9093 60.0103Z" fill="#2B2245"/>
<path d="M41.2848 40.0963C39.0104 37.6291 35.4387 36.3196 32.1632 37.0535C28.8877 37.7873 26.1295 40.6934 25.8734 44.0381C25.821 44.7223 25.8646 45.4211 25.6875 46.0841C25.3895 47.1991 24.5029 48.0829 24.1903 49.1939C23.9809 49.9381 24.043 50.7393 23.8211 51.4798C23.4111 52.8481 22.142 53.7403 21.1748 54.7919C20.7831 55.1774 20.4922 55.6531 20.3277 56.1772C20.2426 56.642 20.2211 57.1163 20.2636 57.5869C20.3044 60.1235 19.3606 62.5774 17.6304 64.4339C18.6478 63.6785 19.7469 63.0399 20.9072 62.5302C20.3321 64.3602 20.8578 66.5256 22.3048 67.7859C23.7518 69.0463 26.0694 69.2421 27.634 68.1308C28.5634 67.4706 29.1671 66.4573 29.7437 65.4742L31.9268 61.7519C32.3216 61.0786 32.7339 60.3858 33.3648 59.9259C33.8662 59.5604 34.4755 59.366 34.9802 59.0051C36.2533 58.0947 36.5952 56.313 36.3581 54.7666C36.1211 53.2202 35.4252 51.7845 35.026 50.2717C34.7104 49.0753 34.6113 47.7041 35.3215 46.6905C36.2641 45.345 38.2014 45.1734 39.4823 44.1442C39.9645 43.7567 40.18 43.2853 40.5254 42.8003C40.8443 42.3525 40.9255 42.513 41.4196 42.4925C42.7762 42.4363 41.7875 40.6416 41.2848 40.0963Z" fill="#2F2E41"/>
<path d="M34.8065 48.803C35.1368 48.803 35.4046 48.1608 35.4046 47.3687C35.4046 46.5765 35.1368 45.9343 34.8065 45.9343C34.4763 45.9343 34.2085 46.5765 34.2085 47.3687C34.2085 48.1608 34.4763 48.803 34.8065 48.803Z" fill="#FFB9B9"/>
<path d="M100.711 150.819C104.939 150.819 108.366 147.394 108.366 143.17C108.366 138.945 104.939 135.52 100.711 135.52C96.4837 135.52 93.0564 138.945 93.0564 143.17C93.0564 147.394 96.4837 150.819 100.711 150.819Z" fill="#F2F2F2"/>
<path d="M24.1611 19.3395C28.3889 19.3395 31.8162 15.9146 31.8162 11.6898C31.8162 7.46494 28.3889 4.04004 24.1611 4.04004C19.9334 4.04004 16.5061 7.46494 16.5061 11.6898C16.5061 15.9146 19.9334 19.3395 24.1611 19.3395Z" fill="#F2F2F2"/>
<path d="M184.438 37.2686C188.666 37.2686 192.094 33.8437 192.094 29.6189C192.094 25.394 188.666 21.9691 184.438 21.9691C180.211 21.9691 176.783 25.394 176.783 29.6189C176.783 33.8437 180.211 37.2686 184.438 37.2686Z" fill="#F2F2F2"/>
</g>
<defs>
<clipPath id="clip0_40_456">
<rect width="233" height="181" fill="white"/>
</clipPath>
</defs>
</svg>
